<ttFont>
          <CharString index="0">
            rmoveto
            6 39 3 33 38 hvcurveto
            -33 38 39 -3 6 hhcurveto
            30 19 7 11 7 -9 7 -20 7 hvcurveto
            26 -72 14 55 -45 hhcurveto
            -45 14 -55 -26 -72 hvcurveto
            -20 -7 -9 -7 -7 vvcurveto
            -11 19 -7 30 vhcurveto
            return
          </CharString>
          <CharString index="1">
            30 24 26 33 33 -24 26 -30 -30 -24 -26 -33 return
          </CharString>
          <CharString index="2">
            -97 callsubr
            -54 callgsubr
            -103 callgsubr
          </CharString>
          <CharString index="3">
            rmoveto
            14 -11 23 -26 -70 54 -52 -43 -126 vhcurveto
            -17 -6 -9 -6 -11 vvcurveto
            -7 5 -5 10 11 179 9 84 vhcurveto
            return
          </CharString>
          <CharString index="4">
            rmoveto
            -84 163 -1 11 10 5 5 7 11 -9 7 -17 5 vhcurveto
            32 -104 44 55 -66 hhcurveto
            -26 -11 -23 -14 hvcurveto
            return
          </CharString>
          <CharString index="5">
            rmoveto
            4 7 1 5 4 vvcurveto
            6 -2 3 41 callsubr
            -4 -8 -7 vhcurveto
            -19 -19 -21 -7 -30 hhcurveto
            -64 -35 56 37 hvcurveto
            -1 7 3 24 -20 4 rrcurveto
            -14 -6 -22 -10 -4 hvcurveto
            -24 -9 -23 -62 -50 hhcurveto
            -64 -9 70 13 hvcurveto
            return
          </CharString>
          <CharString index="6">
            -102 callsubr
            -79 callgsubr
            -49 callgsubr
          </CharString>
          <CharString index="7">
            44 9 -42 24 hhcurveto
            18 24 25 22 21 -13 24 -53 2 hvcurveto
            -78 callgsubr
            3 2 -1 -3 return
          </CharString>
          <CharString index="8">
            -23 callsubr
            1 -20 0 -21 -21 vvcurveto
            -97 -5 -101 -19 vhcurveto
            134 409 -37 callsubr
            -1 15 -10 4 vhcurveto
            -3 hlineto
            -12 -28 -22 -74 -3 hvcurveto
            -88 callsubr
            106 146 48 -2 51 -1 54 -61 callgsubr
            return
          </CharString>
          <CharString index="9">
            rmoveto
            -19 -19 -3 -5 -19 hvcurveto
            50 114 104 233 39 72 34 64 72 119 57 23 rrcurveto
            8 3 3 2 12 vvcurveto
            16 -7 18 -10 -11 -15 -13 -3 -7 vhcurveto
            -40 -99 -382 -118 -30 hhcurveto
            -7 -1 2 2 hvcurveto
            7 30 14 13 vvcurveto
            8 -11 8 -7 -3 -2 0 -2 -3 vhcurveto
            1 1 -104 -67 -36 vvcurveto
            -28 21 -14 36 99 296 136 39 91 vhcurveto
            1 2 1 0 1 hhcurveto
            4 0 -3 0 hvcurveto
            -60 -59 -69 -154 -37 -77 -11 -23 -98 -218 -36 -74 rrcurveto
            -106 -49 -89 -95 -14 vvcurveto
            -14 15 -16 13 vhcurveto
            38 76 124 60 53 150 -133 122 hhcurveto
            49 143 59 62 2 -7 29 -13 hvcurveto
            -12 -12 -46 -67 hhcurveto
            -81 -103 108 13 -111 hvcurveto
            endchar
          </CharString>
          <CharString index="10">
            rmoveto
            -11 -8 -5 -5 -90 callsubr
            -101 -13 -46 callgsubr
            return
          </CharString>
          <CharString index="11">
            -100 callgsubr
            -20 -29 -85 -95 vvcurveto
            return
          </CharString>
          <CharString index="12">
            -96 callsubr
            -68 callsubr
            -86 callsubr
            -81 callgsubr
          </CharString>
          <CharString index="13">
            -17 -8 -25 -32 hhcurveto
            -99 -62 106 116 -32 hvcurveto
            56 131 30 145 95 vvcurveto
            62 -13 40 -26 -72 -63 -190 -253 -16 vhcurveto
            -47 4 -44 7 -38 vhcurveto
            return
          </CharString>
          <CharString index="14">
            rmoveto
            -107 callgsubr
            return
          </CharString>
          <CharString index="15">
            -299 -11 callsubr
            -61 callsubr
            -335 163 -102 callgsubr
          </CharString>
          <CharString index="16">
            -4 15 -1 56 52 vvcurveto
            80 8 93 14 88 vhcurveto
            119 121 85 163 83 vvcurveto
            26 -12 13 -24 -80 -82 -170 -232 -50 vhcurveto
            -30 -37 -42 -18 -43 hhcurveto
            -139 -73 152 109 30 5 35 13 36 hvcurveto
            2 4 1 3 4 vvcurveto
            7 -8 8 -8 -13 -6 -15 0 vhcurveto
            endchar
          </CharString>
          <CharString index="17">
            -6 vvcurveto
            -14 29 -86 31 18 165 106 12 25 vhcurveto
            12 7 9 3 14 vvcurveto
            13 -24 51 -11 17 vhcurveto
            8 -6 -8 2 -7 hhcurveto
            -61 -132 return
          </CharString>
          <CharString index="18">
            -46 26 45 -18 46 hhcurveto
            112 151 143 192 77 hvcurveto
            5 3 4 4 3 hhcurveto
            2 1 -1 -3 hvcurveto
            return
          </CharString>
          <CharString index="19">
            0 -28 -50 -57 -3 vhcurveto
            -55 1 -43 45 57 13 4 21 6 vvcurveto
            9 -5 2 -7 -22 -37 -68 -73 -75 39 -38 54 52 32 35 59 55 vhcurveto
            7 5 4 3 4 hhcurveto
            5 0 -7 -4 -10 1 -29 1 -36 hvcurveto
            -73 -72 -67 -81 -130 vvcurveto
            -57 34 -67 54 68 13 return
          </CharString>
          <CharString index="20">
            42 11 -26 53 hhcurveto
            35 53 31 21 hvcurveto
            7 -1 -6 1 -4 hhcurveto
            -2 -9 -7 0 -7 hhcurveto
            return
          </CharString>
          <CharString index="21">
            -88 callgsubr
            -20 callsubr
            return
          </CharString>
          <CharString index="22">
            -59 callgsubr
            5 -4 5 -14 callsubr
            vhcurveto
            -27 callsubr
            return
          </CharString>
          <CharString index="23">
            rmoveto
            -16 -31 -58 -115 -118 vvcurveto
            -130 88 -89 87 81 82 42 61 73 vhcurveto
            -22 -121 -13 -134 -134 vvcurveto
            -57 6 -54 24 51 26 100 39 2 vhcurveto
            -1 11 -8 5 -7 1 rrcurveto
            -5 -4 -4 -3 hhcurveto
            -3 -3 3 12 -2 hvcurveto
            return
          </CharString>
          <CharString index="24">
            rmoveto
            -54 -108 -44 -20 vhcurveto
            -9 1 -4 -1 8 8 5 5 7 vvcurveto
            27 -38 8 -17 -87 -171 -100 -56 -3 vhcurveto
            -75 163 -16 -73 -98 -149 -17 -109 vvcurveto
            -48 48 -38 48 115 77 87 48 44 vhcurveto
            5 5 4 2 4 hhcurveto
            6 5 -4 -3 2 hvcurveto
            3 -4 2 -5 -6 vvcurveto
            -51 -205 -199 -171 -63 -55 36 70 vhcurveto
            127 165 84 44 63 -160 -6 100 vvcurveto
            169 397 164 98 44 25 -26 -30 vhcurveto
            endchar
          </CharString>
          <CharString index="25">
            134 -87 callgsubr
            return
          </CharString>
          <CharString index="26">
            -90 callgsubr
            hvcurveto
            endchar
          </CharString>
          <CharString index="27">
            vstem
            383 53 rmoveto
            -44 -35 -48 -60 -58 hhcurveto
            -51 -1 51 34 3 -2 1 -3 hvcurveto
            -15 -48 -78 -55 hhcurveto
            -40 -27 27 37 141 165 82 47 1 hvcurveto
            53 -2 13 -24 -21 vvcurveto
            -22 -24 -25 -18 vhcurveto
            -24 -9 42 -44 hhcurveto
            -34 -23 -31 -42 -33 19 -19 36 hvcurveto
            64 -5 69 29 hhcurveto
            10 2 -5 -7 hvcurveto
            -9 -4 -11 -8 vvcurveto
            -21 21 -36 31 23 18 18 6 9 vhcurveto
            6 6 9 3 7 hhcurveto
            7 5 -3 -6 -4 -2 -4 -4 -6 hvcurveto
            return
          </CharString>
          <CharString index="28">
            rmoveto
            -34 -53 -32 -21 hvcurveto
            -7 1 6 -1 4 hhcurveto
            2 9 8 0 7 hhcurveto
            return
          </CharString>
          <CharString index="29">
            -80 -18 89 46 10 -2 9 -6 1 hvcurveto
            -22 -29 -73 -75 -60 33 -51 60 67 104 94 30 10 -1 8 -13 -7 -6 -4 -4 -5 hvcurveto
            endchar
          </CharString>
          <CharString index="30">
            -26 callgsubr
            -94 -199 4 -35 -40 -69 rrcurveto
            -2 -3 0 -23 callgsubr
            19 66 48 107 rrcurveto
            5 9 4 12 4 vvcurveto
            return
          </CharString>
          <CharString index="31">
            -77 -51 -66 -78 -74 hhcurveto
            -78 -34 71 75 143 172 274 169 return
          </CharString>
          <CharString index="32">
            rmoveto
            -66 callsubr
            hintmask 11110000
            -85 callsubr
            138 hmoveto
            -66 callsubr
            -85 callsubr
            endchar
          </CharString>
          <CharString index="33">
            -43 -37 -46 -27 -53 hhcurveto
            -138 -6 213 54 196 50 109 24 49 hvcurveto
            endchar
          </CharString>
          <CharString index="34">
            vstem
            223 105 rmoveto
            -67 -33 40 45 -5 hvcurveto
            -9 -7 -7 -21 -22 vvcurveto
            -34 28 -42 32 48 13 29 12 vhcurveto
            47 58 rmoveto
            10 10 11 14 hhcurveto
            6 2 -3 -4 -17 -37 -42 -21 hvcurveto
            -67 -25 -71 -87 -73 hhcurveto
            -44 -40 27 67 55 59 96 57 hvcurveto
            4 vlineto
            30 23 19 29 55 24 -36 -44 14 vhcurveto
            -7 2 2 -2 4 hhcurveto
            return
          </CharString>
          <CharString index="35">
            rmoveto
            64 43 3 31 23 vvcurveto
            18 -19 14 -19 -29 -65 -32 -27 -4 2 -3 6 vhcurveto
            5 16 7 6 hhcurveto
            14 9 -13 -12 -29 -48 -48 -15 -15 hvcurveto
            -2 -2 -3 -4 -4 vvcurveto
            -4 4 -9 3 vhcurveto
            13 29 20 26 24 12 -18 24 hhcurveto
            22 3 23 40 18 vvcurveto
            5 -2 1 -3 vhcurveto
            -8 -16 -12 -13 -6 -36 13 -21 hhcurveto
            return
          </CharString>
          <CharString index="36">
            rmoveto
            17 20 19 16 16 14 -14 -16 -17 -19 -19 -17 -16 -14 14 16 vhcurveto
            -35 3 rmoveto
            -42 30 -33 38 38 30 33 42 42 -30 33 -38 -38 -30 -33 -42 vhcurveto
            return
          </CharString>
          <CharString index="37">
            4 -2 -45 callsubr
            7 77 return
          </CharString>
          <CharString index="38">
            1 -3 -3 1 -4 hhcurveto
            -5 -4 -2 -3 -2 hvcurveto
            -4 -6 -36 -41 -15 -19 rrcurveto
            -5 -6 -2 -5 -4 vvcurveto
            return
          </CharString>
          <CharString index="39">
            -66 18 -76 85 82 112 74 76 7 -6 4 -6 -4 -5 -2 -4 -5 vhcurveto
            return
          </CharString>
          <CharString index="40">
            -48 -44 -77 -87 -115 hhcurveto
            -48 -48 38 48 hvcurveto
            109 149 17 98 return
          </CharString>
          <CharString index="41">
            48 -5 -30 2 -11 hhcurveto
            -48 -20 -35 -31 hvcurveto
            return
          </CharString>
          <CharString index="42">
            54 79 5 callsubr
            hintmask 01000000
            150 164 rmoveto
            -36 -60 -32 -21 hvcurveto
            -7 1 7 -1 5 hhcurveto
            2 9 9 0 8 hhcurveto
            hintmask 10000000
            47 12 -26 59 hhcurveto
            39 59 31 21 hvcurveto
            7 -1 -7 1 -5 hhcurveto
            -2 -10 -7 0 -8 hhcurveto
            hintmask 01000000
            -47 -13 27 -61 hhcurveto
            endchar
          </CharString>
          <CharString index="43">
            30 -2 37 -41 -35 -3 -48 -17 -29 3 -58 11 -59 vhcurveto
            -17 6 6 -6 7 hhcurveto
            10 10 13 9 3 hvcurveto
            4 8 21 69 68 vvcurveto
            return
          </CharString>
          <CharString index="44">
            -29 callgsubr
            37 14 -10 -34 -2 0 -2 1 -1 return
          </CharString>
          <CharString index="45">
            -20 -27 -59 -25 -9 vhcurveto
            -6 15 -2 15 16 vvcurveto
            return
          </CharString>
          <CharString index="46">
            -13 57 -5 56 45 vvcurveto
            92 12 82 29 27 -7 -69 -17 4 vhcurveto
            return
          </CharString>
          <CharString index="47">
            vhcurveto
            -45 5 33 -40 67 hhcurveto
            47 58 rmoveto
            -4 -2 2 7 -2 hvcurveto
            return
          </CharString>
          <CharString index="48">
            -263 -299 -367 -252 -35 6 -38 19 -33 return
          </CharString>
          <CharString index="49">
            25 8 43 36 vhcurveto
            12 -1 4 -9 -16 vvcurveto
            return
          </CharString>
          <CharString index="50">
            -36 0 -35 1 -14 vhcurveto
            -15 1 6 -5 7 hhcurveto
            8 9 6 5 6 hvcurveto
            4 3 1 6 7 29 -7 6 58 vvcurveto
            23 1 31 1 25 vhcurveto
            120 26 154 126 34 vvcurveto
            4 -3 3 -9 vhcurveto
            0 -53 -50 -52 -36 vhcurveto
            return
          </CharString>
          <CharString index="51">
            5 5 3 8 6 vvcurveto
            4 -1 2 -2 3 vhcurveto
            2 -2 -3 1 -3 hhcurveto
            -6 -8 -4 -8 -7 hvcurveto
            -11 -11 -54 -45 -86 hhcurveto
            -129 -50 88 110 181 139 241 156 60 22 -41 -49 -74 -50 -93 -49 hvcurveto
            return
          </CharString>
          <CharString index="52">
            rmoveto
            -74 -42 -129 -29 -72 vhcurveto
            3 70 5 69 -40 callsubr
            return
          </CharString>
          <CharString index="53">
            223 105 rmoveto
            -44 callsubr
            return
          </CharString>
          <CharString index="54">
            -2 -2 vvcurveto
            -7 17 -4 5 15 return
          </CharString>
          <CharString index="55">
            rmoveto
            17 -24 46 -75 20 vhcurveto
            75 30 24 36 17 vvcurveto
            30 -10 19 -19 19 callsubr
            -92 14 -45 vvcurveto
            -45 92 2 callsubr
            19 10 19 30 hvcurveto
            endchar
          </CharString>
          <CharString index="56">
            58 -62 -36 48 43 30 21 14 vvcurveto
            5 -5 4 -5 -3 21 callgsubr
            -13 -15 -48 -59 -92 vvcurveto
            return
          </CharString>
          <CharString index="57">
            rmoveto
            -30 10 -19 19 11 11 9 20 14 vhcurveto
            37 72 92 -14 45 vvcurveto
            45 -92 2 callgsubr
            -19 -10 -19 -30 -17 24 -36 75 -30 hvcurveto
            -75 -20 -24 -46 -17 vvcurveto
            endchar
          </CharString>
          <CharString index="58">
            rrcurveto
            5 9 4 12 4 vvcurveto
            6 callgsubr
            return
          </CharString>
          <CharString index="59">
            19 12 -18 -17 -40 -66 -58 -21 -21 hvcurveto
            -3 -3 -3 -6 -6 vvcurveto
            -5 3 -5 5 vhcurveto
            18 -1 20 36 hhcurveto
            29 25 -20 -33 17 hvcurveto
            -77 -78 -71 -103 -101 vvcurveto
            -36 23 -38 38 return
          </CharString>
          <CharString index="60">
            -49 callsubr
            vhcurveto
            return
          </CharString>
          <CharString index="61">
            3 -2 -5 4 -6 hhcurveto
            32 callgsubr
            -5 hvcurveto
            return
          </CharString>
          <CharString index="62">
            -28 callgsubr
            -10 callgsubr
            hvcurveto
            return
          </CharString>
          <CharString index="63">
            -12 -13 -29 -48 -32 -28 42 34 22 7 return
          </CharString>
          <CharString index="64">
            5 -52 3 -38 1 -6 rrcurveto
            -9 1 9 -7 10 hhcurveto
            9 9 6 16 3 -2 32 -4 44 hvcurveto
            -29 402 rmoveto
            8 -3 33 -21 -11 -24 -22 -18 -15 12 4 2 -16 vhcurveto
            return
          </CharString>
          <CharString index="65">
            146 72 146 return
          </CharString>
          <CharString index="66">
            rmoveto
            7 1 -5 -6 -62 -49 -114 -72 -83 hvcurveto
            148 28 42 122 43 hhcurveto
            return
          </CharString>
          <CharString index="67">
            0 vvcurveto
            138 8 19 37 15 hhcurveto
            12 9 -24 -15 hvcurveto
            return
          </CharString>
          <CharString index="68">
            124 -94 -38 callgsubr
            return
          </CharString>
          <CharString index="69">
            -36 -19 19 33 42 23 31 34 return
          </CharString>
          <CharString index="70">
            rmoveto
            -25 -32 -30 -29 -31 -29 rrcurveto
            -1 37 0 39 38 0 31 48 12 vvcurveto
            13 return
          </CharString>
          <CharString index="71">
            -83 -11 -294 -232 -4 hvcurveto
            -69 callsubr
            endchar
          </CharString>
          <CharString index="72">
            120 387 rmoveto
            -178 -171 -183 -129 -70 50 -54 127 192 177 178 129 72 -56 57 -141 hvcurveto
            endchar
          </CharString>
          <CharString index="73">
            -49 -29 38 48 43 22 40 37 12 12 -18 -17 hvcurveto
            -18 -15 -1 -13 vvcurveto
            return
          </CharString>
          <CharString index="74">
            -151 -24 -109 -216 -130 vvcurveto
            return
          </CharString>
          <CharString index="75">
            142 135 rmoveto
            27 37 -33 -50 -13 -3 -13 -5 -15 hvcurveto
            -7 -14 -12 -3 -10 hhcurveto
            -29 -18 14 17 -14 hvcurveto
            49 6 11 54 24 hhcurveto
            return
          </CharString>
          <CharString index="76">
            -60 13 22 -78 81 hhcurveto
            46 61 41 47 7 -3 12 -9 hvcurveto
            -10 -2 -6 -18 hhcurveto
            -64 -43 92 41 -19 hvcurveto
            8 -4 -5 4 -9 hhcurveto
            return
          </CharString>
          <CharString index="77">
            -174 -300 -329 -333 return
          </CharString>
          <CharString index="78">
            45 78 21 callsubr
            hstem
            return
          </CharString>
          <CharString index="79">
            323 378 rmoveto
            118 156 207 118 47 -25 32 -61 -276 -235 -376 -244 -117 54 -87 130 return
          </CharString>
          <CharString index="80">
            13 15 48 59 92 vvcurveto
            return
          </CharString>
          <CharString index="81">
            37 14 5 9 hvcurveto
            return
          </CharString>
          <CharString index="82">
            -24 vhcurveto
            -123 -2 -76 callgsubr
            -26 callsubr
            return
          </CharString>
          <CharString index="83">
            rmoveto
            4 5 6 4 7 hhcurveto
            13 1 -8 -10 -30 -104 -94 -67 return
          </CharString>
          <CharString index="84">
            229 -300 rmoveto
            -31 -9 67 40 47 22 51 41 55 hvcurveto
            return
          </CharString>
          <CharString index="85">
            -67 119 -9 -40 vvcurveto
            -9 -7 -13 -17 vhcurveto
            -82 -9 33 -14 hhcurveto
            -18 -2 -30 -24 -22 vvcurveto
            -40 35 -15 47 return
          </CharString>
          <CharString index="86">
            58 -21 3 -15 1 vhcurveto
            -75 -4 -62 -231 -179 vvcurveto
            return
          </CharString>
          <CharString index="87">
            -8 -16 -48 -151 -60 -91 rrcurveto
            return
          </CharString>
          <CharString index="88">
            -30 45 13 58 7 51 return
          </CharString>
          <CharString index="89">
            -42 callsubr
            vstem
            return
          </CharString>
          <CharString index="90">
            176 -162 rmoveto
            -41 -13 -97 -35 -19 -21 29 48 59 28 51 44 47 vhcurveto
            10 -28 6 -32 -36 vvcurveto
            return
          </CharString>
          <CharString index="91">
            5 -46 110 -110 245 -94 69 -69 147 return
          </CharString>
          <CharString index="92">
            4 4 vvcurveto
            6 return
          </CharString>
          <CharString index="93">
            3 4 2 5 4 return
          </CharString>
          <CharString index="94">
            17 25 16 30 53 vvcurveto
            60 -31 25 -43 vhcurveto
            -45 -49 -86 -8 hhcurveto
            -3 -2 6 6 hvcurveto
            54 return
          </CharString>
          <CharString index="95">
            -20 callgsubr
            25 callgsubr
            return
          </CharString>
          <CharString index="96">
            rmoveto
            -71 -16 -92 -31 -83 vhcurveto
            return
          </CharString>
          <CharString index="97">
            143 vstem
            return
          </CharString>
          <CharString index="98">
            66 97 69 58 8 -3 5 -5 -3 -3 -2 -4 -4 vhcurveto
            -17 -18 -23 -13 -25 hhcurveto
            return
          </CharString>
          <CharString index="99">
            51 89 37 vhcurveto
            1 3 0 3 2 vvcurveto
            9 -5 5 -7 -5 -5 -3 -4 -4 vhcurveto
            return
          </CharString>
          <CharString index="100">
            4 3 3 2 2 hhcurveto
            2 1 -1 -5 hvcurveto
            return
          </CharString>
          <CharString index="101">
            -30 callgsubr
            vstemhm
            158 return
          </CharString>
          <CharString index="102">
            108 32 108 return
          </CharString>
          <CharString index="103">
            -67 callsubr
            vvcurveto
            return
          </CharString>
          <CharString index="104">
            282 -23 49 68 57 219 43 hstem
            16 85 42 87 65 84 67 78 vstem
            return
          </CharString>
          <CharString index="105">
            238 vstem
            return
          </CharString>
          <CharString index="106">
            243 139 rmoveto
            50 -23 59 -53 56 -39 rrcurveto
            -29 -41 -42 -17 -27 hhcurveto
            return
          </CharString>
          <CharString index="107">
            -8 -10 -2 -7 vvcurveto
            hintmask 10110101
            -8 16 -11 5 29 40 76 30 vhcurveto
            endchar
          </CharString>
          <CharString index="108">
            -10 -5 41 callsubr
            vvcurveto
            -12 7 -9 10 4 5 1 2 4 vhcurveto
            endchar
          </CharString>
          <CharString index="109">
            14 37 -72 vhcurveto
            -20 14 11 -9 11 hhcurveto
            return
          </CharString>
          <CharString index="110">
            4 -2 3 -6 vhcurveto
            20 callsubr
            return
          </CharString>
          <CharString index="111">
            -54 146 80 91 389 63 47 78 return
          </CharString>
          <CharString index="112">
            58 -32 59 hstemhm
            return
          </CharString>
          <CharString index="113">
            -2 -1 -1 -2 return
          </CharString>
          <CharString index="114">
            93 170 rmoveto
            -19 41 11 -36 vvcurveto
            -15 -24 -10 -22 -11 -2 6 8 return
          </CharString>
          <CharString index="115">
            23 26 34 46 32 vvcurveto
            25 -17 19 -27 -40 -91 -44 -38 vhcurveto
            endchar
          </CharString>
          <CharString index="116">
            23 -34 9 -24 vhcurveto
            return
          </CharString>
          <CharString index="117">
            -32 -11 rrcurveto
            -9 -3 -34 -52 -15 vvcurveto
            -2 2 -2 3 vhcurveto
            21 hlineto
            return
          </CharString>
          <CharString index="118">
            rmoveto
            22 13 172 117 242 vvcurveto
            76 -55 144 -160 return
          </CharString>
          <CharString index="119">
            -52 -7 -107 -53 -57 33 96 -55 hhcurveto
            -30 -53 -71 -18 hvcurveto
            endchar
          </CharString>
          <CharString index="120">
            45 14 137 43 14 12 -18 -35 return
          </CharString>
          <CharString index="121">
            vvcurveto
            -28 6 -4 36 15 5 8 13 vhcurveto
            20 -10 32 41 vvcurveto
            return
          </CharString>
          <CharString index="122">
            469 -57 108 -108 133 -105 133 544 98 return
          </CharString>
          <CharString index="123">
            118 hstemhm
            return
          </CharString>
          <CharString index="124">
            -30 callgsubr
            24 114 vstemhm
            158 return
          </CharString>
          <CharString index="125">
            36 70 78 205 117 vvcurveto
            return
          </CharString>
          <CharString index="126">
            -11 -11 -9 -20 -14 vhcurveto
            -37 -72 return
          </CharString>
          <CharString index="127">
            -14 -10 -11 -10 hhcurveto
            return
          </CharString>
          <CharString index="128">
            51 112 51 return
          </CharString>
          <CharString index="129">
            -161 331 -25 -133 vvcurveto
            -48 -35 -72 -94 vhcurveto
            return
          </CharString>
          <CharString index="130">
            vlineto
            5 -1 -1 4 -4 hhcurveto
            -17 -10 -6 -24 hvcurveto
            return
          </CharString>
          <CharString index="131">
            0 50 hstem
            26 -2 callsubr
            return
          </CharString>
          <CharString index="132">
            rmoveto
            -5 4 -4 7 vhcurveto
            8 21 10 9 hhcurveto
            return
          </CharString>
          <CharString index="133">
            95 99 53 hstem
            -130 248 vstem
            333 return
          </CharString>
          <CharString index="134">
            -73 39 -42 76 110 99 56 76 76 vhcurveto
            return
          </CharString>
          <CharString index="135">
            -10 -1 -4 -17 -11 hhcurveto
            -124 -160 return
          </CharString>
          <CharString index="136">
            3 32 rrcurveto
            4 -12 13 -23 -18 -4 -26 return
          </CharString>
          <CharString index="137">
            -162 -21 397 110 368 82 return
          </CharString>
          <CharString index="138">
            112 -112 126 return
          </CharString>
          <CharString index="139">
            0 18 hhcurveto
            return
          </CharString>
          <CharString index="140">
            -5 callgsubr
            -1 return
          </CharString>
          <CharString index="141">
            153 hhcurveto
            21 hlineto
            3 2 2 2 return
          </CharString>
          <CharString index="142">
            -9 -43 4 60 17 5 24 34 21 return
          </CharString>
          <CharString index="143">
            -10 -5 -10 -6 -10 -7 rrcurveto
            endchar
          </CharString>
          <CharString index="144">
            61 -413 113 276 100 return
          </CharString>
          <CharString index="145">
            197 -39 130 630 91 return
          </CharString>
          <CharString index="146">
            -27 callsubr
            endchar
          </CharString>
          <CharString index="147">
            13 -7 17 -16 -19 return
          </CharString>
          <CharString index="148">
            -5 -5 -8 return
          </CharString>
        <CharString name=".notdef">
          -41 endchar
        </CharString>
        <CharString name="A">
          -24 callgsubr
          hstemhm
          1 133 333 100 hintmask 10011100
          648 682 -96 callsubr
          hintmask 00111100
          -68 callsubr
          hintmask 10011100
          -86 callsubr
          hintmask 01011100
          -81 callgsubr
        </CharString>
        <CharString name="AE">
          664 -44 135 -135 163 563 63 -24 24 -24 91 hstemhm
          1 133 333 117 -117 131 34 115 153 136 hintmask 0110010111000000
          571 249 rmoveto
          -2 20 -2 21 22 vvcurveto
          22 0 22 2 22 vhcurveto
          34 -15 29 -14 -27 vvcurveto
          -17 -31 -27 -30 -29 vhcurveto
          -134 25 rmoveto
          -76 callsubr
          35 42 -25 -29 12 hvcurveto
          -55 -46 -37 -51 -52 vvcurveto
          -31 14 -20 21 -16 vhcurveto
          -20 -46 -24 -52 -26 -40 rrcurveto
          126 471 rmoveto
          -59 callsubr
          hvcurveto
          -89 callsubr
          -20 -29 -114 -95 -77 callgsubr
          hintmask 1010010111000000
          -4 callsubr
          hintmask 1000111011000000
          -90 callgsubr
          30 -25 26 -44 -54 -146 -50 -74 -119 hvcurveto
          hintmask 1001011011000000
          28 -3 -25 29 -57 hhcurveto
          endchar
        </CharString>
        <CharString name="Aacute">
          489 265 -10 callsubr
          527 849 -104 callsubr
          121 -167 -95 callsubr
        </CharString>
        <CharString name="Acircumflex">
          489 746 50 hstem
          361 -2 callsubr
          392 776 -107 callsubr
          256 -94 -95 callgsubr
        </CharString>
        <CharString name="Adieresis">
          -24 callgsubr
          25 16 callsubr
          1 133 163 -5 callsubr
          -78 100 hintmask 1001111100000000
          437 829 rmoveto
          -105 callgsubr
          351 -147 -100 callgsubr
          hintmask 0011111010000000
          -20 -29 -85 -95 vvcurveto
          -68 callsubr
          hintmask 1001111010000000
          -88 callgsubr
          hintmask 0101111100000000
          -20 callsubr
          -76 callsubr
          hvcurveto
          hintmask 1001111010000000
          -67 callgsubr
        </CharString>
        <CharString name="Agrave">
          489 304 -10 callsubr
          362 858 -103 callsubr
          286 -176 -95 callgsubr
        </CharString>
        <CharString name="Aring">
          489 735 48 43 44 hstem
          413 24 58 31 vstem
          397 838 -71 callsubr
          286 -159 -95 callsubr
        </CharString>
        <CharString name="Atilde">
          -24 callgsubr
          22 5 callsubr
          1 133 333 100 hintmask 10010111
          413 852 -79 callsubr
          hintmask 10011011
          -87 callsubr
          hintmask 10010111
          -4 callgsubr
          235 -170 -96 callsubr
          hintmask 00111011
          -68 callsubr
          hintmask 10011011
          -86 callsubr
          hintmask 01011011
          -81 callgsubr
        </CharString>
        <CharString name="B">
          336 -69 88 -40 184 192 89 281 81 hstemhm
          32 49 -49 240 175 121 -66 99 hintmask 10111001
          364 444 rmoveto
          -72 -53 -42 -36 -9 5 -14 13 -3 hvcurveto
          16 20 15 21 hhcurveto
          68 120 -162 -110 -24 0 -40 -33 -58 -59 111 40 -16 hvcurveto
          -2 4 -2 5 -4 1 rrcurveto
          -4 -2 0 -1 -2 hvcurveto
          -13 -2 -90 -51 -8 -5 rrcurveto
          -6 -4 0 -6 -2 vvcurveto
          -44 67 -134 101 119 111 125 122 73 -44 139 -118 42 vhcurveto
          hintmask 01110110
          55 33 74 69 101 vvcurveto
          101 -66 70 -96 -211 -163 -212 -247 -155 51 -213 70 7 7 5 11 3 vhcurveto
          74 449 28 92 22 vvcurveto
          10 -2 13 -4 -12 -31 -23 -2 -3 vhcurveto
          -1 -1 0 -1 -2 vvcurveto
          -5 -17 -17 -254 -29 -107 rrcurveto
          -6 -1 -2 -5 -8 hhcurveto
          hintmask 10111010
          -44 -32 119 109 142 104 192 124 13 13 -3 -6 12 hvcurveto
          70 -28 30 -61 -61 vvcurveto
          -17 -2 -16 -4 -16 vhcurveto
          -6 -22 -15 -28 -22 -26 rrcurveto
          2 -11 -11 1 -12 hhcurveto
          endchar
        </CharString>
        <CharString name="C">
          229 -42 139 281 82 257 65 hstemhm
          0 127 377 93 vstemhm
          -28 callsubr
          116 123 98 78 58 hvcurveto
          -56 callsubr
          hintmask 11111000
          12 callgsubr
        </CharString>
        <CharString name="Ccedilla">
          229 41 callgsubr
          226 45 vstem
          -28 callsubr
          12 13 2 2 13 hvcurveto
          1 -14 18 -4 -21 -21 callgsubr
          24 -30 -11 26 vvcurveto
          2 vlineto
          84 31 78 68 43 58 rrcurveto
          -56 callsubr
          12 callgsubr
        </CharString>
        <CharString name="D">
          16 callgsubr
          387 74 hintmask 10111000
          -1 callsubr
          hintmask 01111000
          -69 -82 49 63 48 25 13 27 hvcurveto
          0 2 0 1 -1 vhcurveto
          -43 callsubr
          -5 15 -164 12 -132 vhcurveto
          -90 -51 -54 -111 -73 vvcurveto
          hintmask 10111000
          27 callsubr
          hintmask 01111000
          -56 callgsubr
          -9 10 -9 12 9 2 8 5 4 vhcurveto
          11 25 33 38 14 15 rrcurveto
          40 42 35 11 -25 callgsubr
          -10 133 -12 163 13 vvcurveto
          endchar
        </CharString>
        <CharString name="E">
          38 callsubr
          hstemhm
          5 31 callsubr
          34 115 153 136 hintmask 11011100
          569 756 -91 callgsubr
          vvcurveto
          hintmask 11101100
          -81 callsubr
        </CharString>
        <CharString name="Eacute">
          197 126 -10 callsubr
          388 887 -104 callsubr
          181 -131 -91 callgsubr
          -81 callsubr
        </CharString>
        <CharString name="Ecircumflex">
          197 787 50 hstem
          186 -2 callsubr
          217 817 -107 callsubr
          352 -61 -83 callsubr
        </CharString>
        <CharString name="Edieresis">
          38 callsubr
          18 16 callsubr
          5 31 callsubr
          34 115 29 108 16 136 hintmask 11101111
          309 889 rmoveto
          -105 callgsubr
          400 -133 -91 callgsubr
          vvcurveto
          hintmask 11110111
          -81 callsubr
        </CharString>
        <CharString name="Egrave">
          197 152 -10 callsubr
          210 900 -103 callsubr
          359 -144 -83 callsubr
        </CharString>
        <CharString name="Eth">
          16 callgsubr
          -95 175 -72 69 310 74 hintmask 10110110
          -1 callsubr
          hintmask 01110110
          -69 -82 49 63 45 23 15 25 hvcurveto
          7 hlineto
          -43 callsubr
          -3 5 -54 7 -71 vhcurveto
          -10 -3 -9 -3 -8 -2 -14 callgsubr
          24 17 48 17 47 13 4 -44 5 -45 3 -43 rrcurveto
          -90 -51 -54 -111 -73 vvcurveto
          hintmask 10110110
          27 callsubr
          hintmask 01101010
          -56 callgsubr
          -5 2 -7 10 -4 vhcurveto
          -2 4 3 0 3 hhcurveto
          9 2 8 5 4 hvcurveto
          11 25 33 38 14 15 rrcurveto
          41 41 36 10 -25 callgsubr
          -2 40 -4 43 -3 41 33 7 29 5 13 -12 callsubr
          vhcurveto
          hintmask 10110110
          -23 -32 -6 -7 -30 hvcurveto
          -6 76 -4 60 8 vvcurveto
          endchar
        </CharString>
        <CharString name="Euro">
          6 -43 71 -71 94 -94 165 8 66 53 44 hstemhm
          40 245 -40 58 hintmask 01011100
          14 79 rmoveto
          -69 callgsubr
          10 7 10 6 11 5 rrcurveto
          -53 4 33 -41 78 hhcurveto
          38 92 41 38 14 -12 1 -4 hvcurveto
          hintmask 10011100
          -25 4 -23 -45 hhcurveto
          -41 -22 20 29 -8 hvcurveto
          12 2 12 1 9 -20 callgsubr
          hintmask 00111010
          25 callgsubr
          -16 -15 -1 -1 -13 vhcurveto
          60 4 40 69 41 hhcurveto
          14 18 -7 -21 -10 -10 -29 -15 -2 hvcurveto
          8 -1 8 -13 -18 -18 -29 -14 -6 0 -17 23 53 57 78 40 24 -20 21 -35 -99 -86 -104 -92 -19 vhcurveto
          36 callsubr
        </CharString>
        <CharString name="F">
          107 -38 -21 381 129 234 129 hstem
          0 165 vstem
          213 298 rmoveto
          -2 -3 -1 -3 -2 vvcurveto
          -6 9 -9 7 6 8 3 4 6 vhcurveto
          18 32 80 22 25 16 12 -15 13 hhcurveto
          38 56 74 23 40 -48 7 -16 hvcurveto
          -129 -3 -98 -129 -14 -21 rrcurveto
          -48 245 rmoveto
          17 12 15 24 1 vhcurveto
          5 0 -2 -3 1 hvcurveto
          -42 -7 -259 -52 -53 15 -158 -34 vvcurveto
          -21 -27 -11 -12 -17 -7 26 6 vhcurveto
          7 -1 38 56 131 14 313 25 vvcurveto
          -126 79 rmoveto
          -20 -12 -19 -89 -22 vvcurveto
          -6 2 -2 3 3 5 3 2 4 vhcurveto
          115 207 166 74 88 23 14 -5 15 hhcurveto
          40 59 71 28 31 -36 4 -18 -180 -211 -105 -87 -145 hvcurveto
          endchar
        </CharString>
        <CharString name="G">
          314 -190 -21 195 124 245 82 -82 203 207 68 hstemhm
          1 116 57 81 206 62 49 88 hintmask 1110111110000000
          174 417 rmoveto
          -41 23 -23 42 130 291 277 140 vhcurveto
          33 -3 -19 28 -42 hhcurveto
          -211 -384 -321 -342 -94 51 -90 106 hvcurveto
          177 148 186 24 hhcurveto
          2 1 -1 -3 hvcurveto
          -6 -49 -155 -108 vvcurveto
          -49 4 -5 -59 46 hhcurveto
          24 29 37 29 11 -14 2 -3 3 hvcurveto
          -2 2 -17 36 62 vvcurveto
          83 37 163 7 26 vhcurveto
          3 10 1 7 4 vvcurveto
          6 -6 8 -7 -3 -7 -6 -5 -3 vhcurveto
          -17 -13 -113 -142 -122 hhcurveto
          -102 -78 81 117 214 236 243 154 40 25 -20 -35 -68 -153 -205 -102 -32 -30 13 37 18 27 26 1 12 hvcurveto
          hintmask 1101111110000000
          10 -9 5 -10 -49 -41 -108 -31 vhcurveto
          endchar
        </CharString>
        <CharString name="H">
          384 -162 144 904 -20 hstemhm
          100 183 -63 63 -39 39 216 31 -31 48 hintmask 11100010
          503 12 rmoveto
          -3 -1 -1 -2 -7 -8 14 10 -8 vhcurveto
          9 1 8 1 8 1 rrcurveto
          157 95 rmoveto
          26 -7 14 -11 vhcurveto
          -20 -4 -38 -40 hhcurveto
          -11 -9 0 1 -10 hvcurveto
          hintmask 11010100
          -8 111 -9 121 186 75 3 89 14 vvcurveto
          12 -2 12 -6 -9 -23 -19 -1 -2 vhcurveto
          0 -7 -5 -10 0 15 -562 -18 vvcurveto
          -94 18 -42 44 3 -2 -32 39 -27 31 -24 25 rrcurveto
          -4 108 -3 115 97 vvcurveto
          31 0 29 1 26 vhcurveto
          3 91 9 77 7 vvcurveto
          9 -4 3 -5 -9 -43 -34 -9 vhcurveto
          -2 -7 -6 -91 -119 vvcurveto
          -85 8 -101 3 -92 vhcurveto
          -5 vlineto
          37 -52 -8 16 -24 hhcurveto
          hintmask 11100100
          -17 -30 -36 -30 -36 54 -100 86 -75 hvcurveto
          hintmask 11001100
          1 -10 3 -30 -29 vvcurveto
          -34 -4 -34 -16 vhcurveto
          -56 -54 114 -12 hhcurveto
          -7 -69 -55 -12 -15 hvcurveto
          -9 -8 -1 -9 -4 vvcurveto
          -2 103 -168 85 101 0 135 41 19 0 24 -1 26 vhcurveto
          41 -27 46 -19 50 -5 21 -29 65 -95 4 -5 rrcurveto
          -1 1 1 0 2 hhcurveto
          9 18 10 6 5 hvcurveto
          2 2 1 6 8 vvcurveto
          41 -1 37 -2 38 vhcurveto
          62 25 36 42 9 13 rrcurveto
          endchar
        </CharString>
        <CharString name="I">
          107 -124 233 -32 32 743 -20 hstemhm
          142 62 hintmask 10110000
          70 -5 rmoveto
          -12 -7 -4 -6 -90 callsubr
          -100 -14 -46 callgsubr
          -54 callgsubr
          hintmask 01110000
          -103 callgsubr
        </CharString>
        <CharString name="Iacute">
          107 6 -10 callsubr
          268 972 -104 callsubr
          -198 -977 -105 callsubr
        </CharString>
        <CharString name="Icircumflex">
          107 848 50 hstem
          37 -2 callsubr
          68 878 -107 callsubr
          2 -883 -105 callsubr
        </CharString>
        <CharString name="Idieresis">
          107 -124 233 -32 32 774 16 callsubr
          52 108 -18 62 -12 108 hintmask 10110100
          192 942 rmoveto
          -105 callgsubr
          18 -947 -97 callsubr
          hintmask 01101000
          -54 callgsubr
          hintmask 01110100
          -10 3 -4 6 vhcurveto
          hintmask 10101000
          -33 callgsubr
          hvcurveto
          -104 callgsubr
        </CharString>
        <CharString name="Igrave">
          107 3 -10 callsubr
          61 971 -103 callsubr
          9 -976 -105 callsubr
        </CharString>
        <CharString name="J">
          129 -56 102 849 -20 hstem
          236 47 22 50 vstem
          259 702 rmoveto
          -18 -24 -5 -37 -28 -97 69 -243 -135 vvcurveto
          -48 -7 -44 -29 vhcurveto
          -81 -82 170 -14 hhcurveto
          -5 -6 -4 -9 -8 hvcurveto
          -22 -28 -24 -18 -16 -18 rrcurveto
          -8 -8 -2 -8 -7 vvcurveto
          -48 120 -124 72 128 34 141 62 vhcurveto
          101 -72 302 91 vvcurveto
          29 8 24 2 11 vhcurveto
          5 -2 2 -5 -7 -11 -5 -5 -9 vhcurveto
          -212 30 rmoveto
          -11 -7 -22 -71 -33 vvcurveto
          -10 4 -3 5 6 9 5 6 9 vhcurveto
          12 8 99 47 96 38 76 30 76 23 10 4 21 7 16 10 7 10 rrcurveto
          7 10 21 48 19 vvcurveto
          17 -8 5 -9 -69 -298 -127 -36 -57 vhcurveto
          endchar
        </CharString>
        <CharString name="K">
          249 -44 109 267 32 358 97 hstemhm
          0 45 214 212 -92 92 hintmask 11111000
          18 715 rmoveto
          -19 -133 2 -42 -1 -219 rrcurveto
          -208 8 -90 -31 vvcurveto
          -10 2 -11 10 19 16 24 5 vhcurveto
          -8 69 -2 80 62 38 1 32 18 vvcurveto
          4 1 4 2 1 1 -1 -3 1 vhcurveto
          -117 32 23 -230 208 hhcurveto
          121 87 84 39 9 -9 16 -9 -3 -4 -2 -3 -5 hvcurveto
          -7 -10 -17 -27 -43 hhcurveto
          -108 -113 92 169 -96 hvcurveto
          -2 6 -2 6 4 vvcurveto
          4 2 3 3 vhcurveto
          5 27 -17 41 hhcurveto
          171 120 220 144 70 -31 53 -73 -34 -74 -61 -31 -7 12 -7 9 hvcurveto
          9 3 9 10 hhcurveto
          hintmask 11110100
          48 29 -62 -60 -41 -39 -195 -160 -23 -45 9 42 -33 hvcurveto
          5 -1 -5 2 -10 -6 -4 -13 -3 hhcurveto
          -2 0 5 16 47 1 161 19 101 hvcurveto
          8 -9 0 0 vhcurveto
          -14 -2 -17 -11 -3 -3 rrcurveto
          -2 -3 -5 -8 -5 vvcurveto
          endchar
        </CharString>
        <CharString name="L">
          -1 callgsubr
          37 -18 -13 callgsubr
          vhcurveto
          hintmask 10110011
          -254 19 -11 -139 -75 callgsubr
          110 -17 160 135 vvcurveto
          91 35 149 110 33 2 -24 -13 1 vhcurveto
          0 callsubr
        </CharString>
        <CharString name="Lslash">
          -1 callgsubr
          40 -21 -13 callgsubr
          -46 0 -37 1 -32 vhcurveto
          -2 -1 -3 -1 -3 -1 -14 callgsubr
          21 15 38 14 40 12 rrcurveto
          hintmask 10110011
          6 -112 10 -33 -102 -75 callgsubr
          81 -9 108 -5 106 vhcurveto
          44 11 41 7 16 -12 callsubr
          -29 -43 -9 -9 -37 vhcurveto
          -1 23 -1 23 22 vvcurveto
          38 5 86 37 51 vhcurveto
          44 32 43 21 28 hhcurveto
          33 2 -24 -13 1 hvcurveto
          0 callsubr
        </CharString>
        <CharString name="M">
          644 -49 98 -98 193 310 214 53 -20 hstemhm
          11 43 513 65 hintmask 10111100
          4 -30 rmoveto
          -6 2 -10 9 17 24 14 18 5 vhcurveto
          28 9 125 440 30 hhcurveto
          55 6 -418 -50 4 hvcurveto
          -9 3 -10 9 16 27 27 19 6 vhcurveto
          3 13 147 420 50 125 rrcurveto
          3 2 5 4 5 hhcurveto
          3 3 -1 -6 1 hvcurveto
          -48 -3 -92 -81 vvcurveto
          -107 2 -292 188 73 88 65 32 9 -9 10 -10 vhcurveto
          -9 -8 -18 -27 hhcurveto
          -192 -24 381 118 -7 hvcurveto
          -4 69 2 64 -1 13 rrcurveto
          10 -5 15 -17 2 vhcurveto
          -14 -2 -34 -26 3 -2 rrcurveto
          hintmask 01111100
          7 -15 -178 -554 -16 -15 -8 524 -52 hhcurveto
          -21 -21 -23 -32 -9 hvcurveto
          -27 -8 -162 -498 -5 hhcurveto
          -2 -1 5 13 hvcurveto
          1 16 4 275 170 73 -2 56 3 vvcurveto
          8 -2 14 -10 -17 -23 -26 -8 vhcurveto
          0 11 -105 -244 vvcurveto
          -99 -2 -122 -5 -147 vhcurveto
          endchar
        </CharString>
        <CharString name="N">
          268 -21 -21 707 92 hstem
          121 49 241 91 vstem
          150 592 rmoveto
          1 1 17 27 13 hhcurveto
          4 3 -3 -6 hvcurveto
          -6 -31 -12 -248 -110 -90 19 -101 -35 vvcurveto
          -17 -25 -21 -19 -11 -8 8 15 -1 vhcurveto
          -2 15 -2 59 67 vvcurveto
          91 19 334 10 45 -82 callgsubr
          endchar
        </CharString>
        <CharString name="Ntilde">
          268 -21 -21 707 92 16 5 callsubr
          121 49 -49 68 222 91 hintmask 11100110
          150 592 rmoveto
          -10 -45 -19 -334 -91 vvcurveto
          -67 2 -59 2 -15 vhcurveto
          -15 1 8 -8 11 hhcurveto
          19 25 21 17 hvcurveto
          hintmask 11011010
          35 -19 101 90 vvcurveto
          110 12 248 6 31 vhcurveto
          6 -3 3 -4 -13 -17 -27 -1 -1 -82 callgsubr
          -130 769 -79 callsubr
          hintmask 11101010
          -87 callsubr
          hintmask 11011010
          -4 callgsubr
          endchar
        </CharString>
        <CharString name="O">
          4 callsubr
          hstem
          35 callgsubr
          vstem
          196 343 -106 callgsubr
        </CharString>
        <CharString name="OE">
          582 -54 146 -131 131 80 91 389 160 -91 91 -50 78 hstemhm
          0 100 96 77 117 31 callsubr
          -61 76 19 115 153 136 hintmask 1011001101011000
          417 263 -39 callgsubr
          20 17 -6 -11 14 hvcurveto
          -59 -48 -41 -54 -54 -100 160 6 -63 vvcurveto
          -3 -1 -4 -1 -3 vhcurveto
          -25 -30 -44 -24 -57 hhcurveto
          -148 -171 rmoveto
          -135 -34 137 92 hvcurveto
          hintmask 1010011100111000
          -63 callsubr
          vhcurveto
          -33 callsubr
          -73 53 -98 100 26 26 6 10 26 vhcurveto
          -56 -43 -53 -40 -62 hhcurveto
          685 664 rmoveto
          hintmask 1010101100111000
          30 -25 26 -44 -56 -152 -53 -77 -121 vhcurveto
          20 -17 -24 13 -31 hhcurveto
          26 13 21 34 21 vvcurveto
          hintmask 1010011110011000
          -66 callgsubr
          76 74 46 70 64 vhcurveto
          hintmask 0111001101011000
          -66 2 54 -35 62 hhcurveto
          -45 callgsubr
          hvcurveto
          -46 callsubr
          -4 callsubr
          hintmask 1010101110011000
          -81 callsubr
        </CharString>
        <CharString name="Oacute">
          229 -10 callsubr
          491 961 -104 callsubr
          -295 -618 -106 callgsubr
        </CharString>
        <CharString name="Ocircumflex">
          829 50 hstem
          300 -2 callsubr
          331 859 -107 callsubr
          -135 -516 -97 callgsubr
        </CharString>
        <CharString name="Odieresis">
          4 callsubr
          20 16 callsubr
          0 100 96 77 -39 -5 callsubr
          -27 76 11 49 hintmask 1111110110100000
          234 919 -93 callsubr
          -40 callgsubr
          hintmask 1111111001100000
          -178 -576 -106 callgsubr
        </CharString>
        <CharString name="Ograve">
          242 -10 callsubr
          300 950 -103 callsubr
          -104 -607 -97 callgsubr
        </CharString>
        <CharString name="Oslash">
          -40 -29 callsubr
          86 -18 callsubr
          349 172 rmoveto
          26 27 6 11 26 hvcurveto
          -57 -43 -54 -40 -62 hhcurveto
          -9 -8 0 1 -7 hvcurveto
          11 30 13 33 13 33 rrcurveto
          -11 19 22 -6 26 hhcurveto
          -76 256 rmoveto
          96 66 109 79 17 vhcurveto
          -39 -96 -43 -108 -42 -107 rrcurveto
          -13 24 -8 29 36 vvcurveto
          144 -165 rmoveto
          -26 -35 11 26 -30 hvcurveto
          48 120 49 124 42 104 rrcurveto
          53 -16 24 -64 -61 vvcurveto
          -62 -22 -91 -40 -81 vhcurveto
          -6 -19 -21 -4 -23 hhcurveto
          -221 80 rmoveto
          -42 17 -49 33 -35 vhcurveto
          -16 -39 -15 -37 -14 -35 rrcurveto
          -79 37 -22 104 74 vvcurveto
          -29 callgsubr
          30 15 -7 -21 4 vhcurveto
          -3 -8 -3 -8 -4 -8 rrcurveto
          -144 -34 -103 -207 -126 vvcurveto
          345 565 -26 callgsubr
          -8 -17 -9 -20 -10 -23 rrcurveto
          3 -8 -7 2 -7 hhcurveto
          -30 callsubr
          -117 47 -92 89 -19 hvcurveto
          -14 -33 -12 -28 -10 -21 rrcurveto
          -1 -3 -1 -53 callsubr
          16 11 12 5 vhcurveto
          6 15 10 25 14 34 119 9 114 121 77 148 -84 callgsubr
          66 -32 68 -67 5 vhcurveto
          1 3 1 3 1 2 rrcurveto
          21 16 15 27 18 vvcurveto
          6 -1 6 -2 5 vhcurveto
          14 32 11 27 8 16 -16 callgsubr
        </CharString>
        <CharString name="Otilde">
          4 callsubr
          18 5 callsubr
          35 callgsubr
          hintmask 1111011111000000
          353 943 -79 callsubr
          hintmask 1111101111000000
          -87 callsubr
          hintmask 1111011111000000
          -4 callgsubr
          -157 -600 -106 callgsubr
        </CharString>
        <CharString name="P">
          209 -60 136 692 87 hstemhm
          3 54 266 43 -9 22 -22 48 131 90 hintmask 11100110
          432 263 11 callsubr
          -269 -139 -208 -250 -205 195 -252 147 44 16 48 25 vhcurveto
          hintmask 11101010
          55 -24 177 -2 36 vhcurveto
          -2 18 -5 63 -3 63 rrcurveto
          hintmask 11110010
          -3 66 0 67 24 vvcurveto
          34 callgsubr
          hintmask 11101010
          -272 29 -109 5 -77 vhcurveto
          28 callsubr
          210 184 157 90 141 167 179 43 -168 -88 -61 -17 -80 -102 -72 hvcurveto
          1 callsubr
        </CharString>
        <CharString name="Q">
          376 -75 -21 48 149 549 64 13 125 -81 81 hstemhm
          1 103 89 75 249 57 -57 107 hintmask 1111011010000000
          268 487 rmoveto
          75 60 88 79 77 33 -66 -87 -62 -17 -72 -29 -65 vhcurveto
          -97 38 -106 40 111 vvcurveto
          192 240 rmoveto
          17 38 39 40 4 hvcurveto
          24 -10 22 -51 vhcurveto
          -240 -1 -217 -426 -227 vvcurveto
          -119 47 -127 108 110 98 87 115 73 vhcurveto
          45 -28 33 -34 -50 vvcurveto
          -54 -40 -40 -22 -17 vhcurveto
          -5 -4 -2 -6 -4 vvcurveto
          -7 6 -6 8 45 119 126 95 82 -54 42 -66 33 vhcurveto
          hintmask 1110111100000000
          45 103 25 109 81 vvcurveto
          56 -25 83 -84 -116 -156 -140 -192 -110 110 -44 91 -49 vhcurveto
          -47 -43 -52 -31 -58 hhcurveto
          -98 -39 130 94 193 147 253 139 hvcurveto
          hintmask 1111011100000000
          60 -13 -44 23 hhcurveto
          endchar
        </CharString>
        <CharString name="R">
          406 -30 -21 829 97 hstemhm
          16 46 134 40 -40 50 9 71 114 107 hintmask 11110110
          487 -51 rmoveto
          125 71 111 11 10 -8 7 -10 6 hvcurveto
          -7 -8 -12 -8 -9 hvcurveto
          -13 -17 -18 -8 -21 hhcurveto
          -124 11 -135 186 36 vvcurveto
          4 3 3 4 1 vhcurveto
          149 16 65 121 128 vvcurveto
          153 -94 163 -156 -211 -70 -283 -118 -255 132 -263 87 -7 vhcurveto
          12 4 8 11 1 hvcurveto
          33 -16 158 51 vvcurveto
          hintmask 11101110
          102 1 85 9 102 vhcurveto
          4 50 5 37 1 10 rrcurveto
          6 -3 2 -4 -15 -18 -5 -30 -9 vhcurveto
          -13 -9 -85 -2 -86 vhcurveto
          -1 -30 0 -29 -27 -54 1 -45 -27 -11 -1 -9 -5 vvcurveto
          -5 -1 -3 -2 vhcurveto
          -1 hlineto
          -89 115 -40 153 102 vvcurveto
          157 97 111 63 146 72 -176 -123 -77 -30 -61 -62 vhcurveto
          -51 4 -17 29 -14 3 rrcurveto
          -8 -3 -10 -5 -166 54 -247 178 hvcurveto
          endchar
        </CharString>
        <CharString name="S">
          373 -77 87 -87 110 -110 187 592 70 hstemhm
          489 111 -11 93 hintmask 10010100
          595 613 0 callgsubr
          hintmask 10011000
          22 callsubr
          hintmask 00111000
          -50 callgsubr
          hintmask 01011000
          -35 callgsubr
          hintmask 10010100
          8 callgsubr
        </CharString>
        <CharString name="Scaron">
          373 745 50 hstem
          303 -2 callsubr
          334 895 -99 callgsubr
          261 -282 0 callgsubr
          22 callsubr
          -50 callgsubr
          -35 callgsubr
          8 callgsubr
        </CharString>
        <CharString name="T">
          249 -58 98 656 105 hstem
          315 590 rmoveto
          3 6 14 8 15 1 rrcurveto
          8 2 -4 -4 hvcurveto
          -24 -121 -4 -82 -57 vvcurveto
          -179 50 -118 75 vhcurveto
          1 7 6 2 5 hhcurveto
          7 5 -7 -8 -43 -77 -43 -54 -88 -26 90 149 hvcurveto
          1 190 67 203 8 16 rrcurveto
          -281 45 rmoveto
          -8 -5 -26 -73 -32 vvcurveto
          -8 3 -4 6 3 4 1 2 4 vhcurveto
          130 93 390 81 89 6 rrcurveto
          27 2 14 61 22 vvcurveto
          15 -15 4 -7 1 vhcurveto
          -186 -10 -283 -79 -145 -77 rrcurveto
          endchar
        </CharString>
        <CharString name="Thorn">
          209 -60 136 598 200 hstemhm
          3 54 260 44 -4 48 131 90 hintmask 11101100
          357 103 rmoveto
          28 callsubr
          144 184 157 90 113 167 hvcurveto
          hintmask 11110100
          3 hlineto
          hintmask 11101100
          9 -243 27 -265 4 -63 rrcurveto
          75 66 11 callsubr
          -19 -18 -1 -2 -17 vhcurveto
          89 vlineto
          34 callgsubr
          -74 vlineto
          -206 -38 -105 -165 -218 vvcurveto
          -205 195 -186 147 44 16 48 25 55 -24 177 -2 36 vhcurveto
          hintmask 11110100
          -2 16 -12 278 -4 94 rrcurveto
          139 -27 36 -145 -79 vvcurveto
          -61 -17 -80 -102 -72 vhcurveto
          1 callsubr
        </CharString>
        <CharString name="U">
          15 callsubr
          4 -20 hstemhm
          0 102 269 75 65 50 hintmask 10010111
          -22 callgsubr
          -335 163 rmoveto
          2 6 1 5 4 vvcurveto
          hintmask 00101111
          -85 callgsubr
          hintmask 01010111
          -60 callgsubr
          hintmask 10010111
          -94 callsubr
          hintmask 00110111
          -74 callsubr
        </CharString>
        <CharString name="Uacute">
          469 207 -10 callsubr
          469 861 -104 callsubr
          42 -92 callsubr
        </CharString>
        <CharString name="Ucircumflex">
          469 742 50 hstem
          233 -2 callsubr
          -22 callgsubr
          -247 210 -107 callsubr
          -88 -47 -102 callgsubr
        </CharString>
        <CharString name="Udieresis">
          15 callsubr
          38 16 callsubr
          0 102 140 108 21 75 -75 119 21 50 hintmask 1001111011000000
          382 843 rmoveto
          -105 callgsubr
          269 -281 -11 callsubr
          hintmask 0011111101000000
          -61 callsubr
          -335 163 -83 callgsubr
          hintmask 0101111101000000
          -60 callgsubr
          hintmask 1001111101000000
          -94 callsubr
          hintmask 0011111101000000
          -74 callsubr
        </CharString>
        <CharString name="Ugrave">
          469 179 -10 callsubr
          237 861 -103 callsubr
          274 -92 callsubr
        </CharString>
        <CharString name="V">
          154 -40 -21 637 151 -134 134 hstemhm
          1 113 214 39 hintmask 10111000
          95 716 rmoveto
          -24 -18 -70 -74 -4 vvcurveto
          -231 2 244 -450 41 hhcurveto
          5 7 3 9 10 hvcurveto
          18 17 44 56 0 0 -5 32 54 vvcurveto
          130 59 353 66 vhcurveto
          hintmask 11011000
          5 -1 -17 10 hhcurveto
          23 34 76 34 25 -15 16 -22 -154 -40 -584 -51 -4 hvcurveto
          -9 7 -205 294 287 vvcurveto
          25 -3 15 -8 -2 -3 -2 -2 -3 vhcurveto
          endchar
        </CharString>
        <CharString name="W">
          585 -56 142 -126 -21 696 92 hstemhm
          1 116 315 75 324 62 hintmask 01111100
          239 705 rmoveto
          -19 -25 -121 -181 -74 -244 rrcurveto
          -17 -57 -7 -46 -39 vvcurveto
          -142 82 -32 39 29 50 11 60 56 vhcurveto
          29 31 36 42 30 44 49 73 34 74 6 11 rrcurveto
          12 6 6 6 2 hhcurveto
          1 0 -2 -4 hvcurveto
          -1 -9 -23 -91 -73 vvcurveto
          hintmask 10111100
          -65 21 -115 99 143 198 227 266 203 -98 87 -86 -64 -52 -55 -23 -7 4 -6 14 -1 vhcurveto
          132 -5 88 -195 -109 vvcurveto
          -74 -57 -166 -127 -117 -23 132 105 29 2 37 7 47 vhcurveto
          1 6 1 4 4 vvcurveto
          8 -8 8 -10 -9 -4 -13 -13 -6 vhcurveto
          -74 -32 -124 -271 -103 hhcurveto
          -50 -55 43 126 133 84 194 57 83 hvcurveto
          7 9 3 6 6 vvcurveto
          9 -9 8 -8 -4 21 callgsubr
          endchar
        </CharString>
        <CharString name="X">
          498 -64 -21 58 115 526 155 4 -20 hstemhm
          hintmask 11100000
          665 769 rmoveto
          -91 -176 -225 -222 -129 hvcurveto
          -119 143 -89 177 -22 113 rrcurveto
          hintmask 11010000
          9 -5 9 -4 -17 -12 -23 -11 -16 9 -80 26 -90 vhcurveto
          34 -118 61 -132 72 -102 -56 -110 -37 -98 -1 -56 rrcurveto
          -14 8 -8 15 18 5 3 18 4 vhcurveto
          17 74 27 75 33 72 rrcurveto
          -150 118 93 -34 86 hhcurveto
          43 91 8 100 96 hvcurveto
          6 5 4 8 7 vvcurveto
          11 -12 16 -11 -4 -4 -1 -4 -5 vhcurveto
          -10 -13 -17 -25 -62 hhcurveto
          -120 -121 83 112 -102 hvcurveto
          hintmask 11100000
          190 109 132 141 48 14 -11 -15 13 hhcurveto
          34 69 87 40 22 -19 21 -26 hvcurveto
          endchar
        </CharString>
        <CharString name="Y">
          30 callsubr
          hstemhm
          1 88 288 68 -68 109 112 73 hintmask 11110110
          590 692 -74 callgsubr
          hintmask 11111010
          -91 callsubr
        </CharString>
        <CharString name="Yacute">
          193 -10 callsubr
          590 692 -41 callsubr
          -135 159 -104 callsubr
          -380 -154 -84 callsubr
          -91 callsubr
        </CharString>
        <CharString name="Ydieresis">
          30 callsubr
          -1 16 callsubr
          1 88 136 -5 callsubr
          -96 68 -68 109 112 73 hintmask 1101111001000000
          365 832 rmoveto
          -105 callgsubr
          hintmask 1110110011000000
          365 -140 -74 callgsubr
          hintmask 1110110101000000
          -91 callsubr
        </CharString>
        <CharString name="Z">
          490 -94 106 523 92 174 -20 hstem
          358 133 -98 callsubr
        </CharString>
        <CharString name="Zcaron">
          490 744 50 hstem
          277 -2 callsubr
          308 894 -99 callgsubr
          50 -761 -98 callsubr
        </CharString>
        <CharString name="a">
          -34 callgsubr
          hstemhm
          0 102 hintmask 10001010
          -80 callgsubr
          hintmask 00101010
          10 callgsubr
          hintmask 01000110
          -62 callgsubr
          hintmask 10001010
          -100 callsubr
          hvcurveto
          hintmask 00011010
          5 callgsubr
          endchar
        </CharString>
        <CharString name="aacute">
          83 19 -10 callsubr
          301 373 -104 callsubr
          82 -320 rmoveto
          4 6 2 4 4 vvcurveto
          6 -5 3 -7 -7 -9 -3 -6 -6 vhcurveto
          -6 -9 -18 -18 -23 hhcurveto
          -68 callgsubr
          58 48 60 44 35 hvcurveto
          endchar
        </CharString>
        <CharString name="acircumflex">
          83 22 callgsubr
          65 238 -80 callsubr
          -287 237 -107 callsubr
          endchar
        </CharString>
        <CharString name="acute">
          30 -7 -10 callsubr
          255 373 -104 callsubr
          endchar
        </CharString>
        <CharString name="adieresis">
          -34 callgsubr
          46 16 callsubr
          0 102 -47 108 27 113 hintmask 1000101101000000
          -80 callgsubr
          hintmask 0010101101000000
          10 callgsubr
          hintmask 0100011101000000
          -62 callgsubr
          hintmask 1000101101000000
          -100 callsubr
          hvcurveto
          hintmask 0001101011000000
          5 callgsubr
          -188 300 rmoveto
          -105 callgsubr
          endchar
        </CharString>
        <CharString name="ae">
          162 -48 92 -60 111 125 52 -52 64 hstemhm
          0 102 228 64 hintmask 01101100
          270 155 rmoveto
          -58 callsubr
          -62 callsubr
          -113 -60 rmoveto
          -38 callsubr
          39 11 -33 -8 19 hvcurveto
          -14 -23 -11 -24 -7 -24 rrcurveto
          -8 -10 -12 -5 -17 hhcurveto
          55 177 rmoveto
          -78 callgsubr
          1 1 0 -13 hvcurveto
          hintmask 10011100
          -96 callgsubr
          11 callgsubr
          -30 -30 -17 -27 -27 vhcurveto
          hintmask 10101100
          -6 16 -17 14 -40 2 rrcurveto
          endchar
        </CharString>
        <CharString name="agrave">
          83 18 143 -80 callsubr
          -307 320 -103 callsubr
          endchar
        </CharString>
        <CharString name="ampersand">
          73 -79 82 -44 97 319 112 -75 75 hstemhm
          -23 94 1 88 79 94 -94 130 -130 173 hintmask 1010110100000000
          353 3 rmoveto
          -54 1 -5 54 -2 45 rrcurveto
          50 50 27 48 36 vvcurveto
          hintmask 0101111000000000
          45 -16 20 -20 -37 -52 -67 -116 -5 vhcurveto
          -29 -26 -40 -34 -54 hhcurveto
          -24 -24 19 23 hvcurveto
          59 89 13 61 vvcurveto
          47 -86 14 -12 37 vhcurveto
          30 3 95 53 49 hhcurveto
          19 4 -2 -4 hvcurveto
          -4 -3 -6 -7 vvcurveto
          hintmask 0110111000000000
          -14 4 0 14 32 54 30 39 22 -19 21 -32 -60 -245 -103 -106 vhcurveto
          -57 95 -3 -33 vvcurveto
          -4 -19 -20 -8 -8 vhcurveto
          -29 -30 -42 -42 -49 vvcurveto
          -47 38 -26 41 64 73 45 42 46 vhcurveto
          -1 -7 0 -8 -8 vvcurveto
          hintmask 1010110010000000
          -49 15 -53 56 43 63 46 40 11 -3 6 -10 -6 21 callgsubr
          -7 -9 -11 -7 -12 hhcurveto
          endchar
        </CharString>
        <CharString name="apple">
          524 -141 57 79 57 413 56 79 57 hstem
          0 57 174 69 207 72 163 57 vstem
          579 131 rmoveto
          170 -279 -12 106 vvcurveto
          41 41 29 59 45 50 -16 -37 42 vhcurveto
          13 55 rlineto
          15 -30 -54 39 -69 hhcurveto
          -72 -94 -30 -101 hvcurveto
          -141 276 -18 -105 vvcurveto
          -43 -46 -31 -68 -45 -57 15 37 -59 vhcurveto
          -12 -60 rlineto
          -22 47 56 -27 61 hhcurveto
          101 94 42 94 hvcurveto
          163 127 rmoveto
          -189 -153 -153 -190 -189 -153 153 189 189 153 153 189 190 153 -153 -189 vhcurveto
          57 hmoveto
          221 -179 178 -221 -220 -179 -178 -221 -221 179 -178 220 221 179 178 221 vhcurveto
          -435 441 rmoveto
          1 9 17 1 9 hhcurveto
          12 12 -1 -1 12 hvcurveto
          113 108 rlineto
          -74 hlineto
          -75 -77 -74 77 rlineto
          -74 hlineto
          endchar
        </CharString>
        <CharString name="aring">
          83 251 48 43 44 hstem
          162 24 58 31 vstem
          383 53 rmoveto
          4 6 2 4 4 vvcurveto
          6 -5 3 -7 -7 -9 -3 -6 -6 vhcurveto
          -6 -9 -18 -18 -23 hhcurveto
          -68 callgsubr
          58 48 60 44 35 hvcurveto
          -237 301 -71 callsubr
          endchar
        </CharString>
        <CharString name="asciicircum">
          54 75 120 hstem
          88 75 -107 callsubr
          endchar
        </CharString>
        <CharString name="asciitilde">
          -65 callsubr
        </CharString>
        <CharString name="asterisk">
          42 183 158 -158 221 -199 -21 hstemhm
          38 142 -107 173 -109 43 -43 143 hintmask 01000010
          180 369 rmoveto
          17 -4 18 -13 -20 -6 -17 -24 -27 8 -29 3 -14 vhcurveto
          hintmask 10010000
          8 -10 -49 40 -30 hhcurveto
          -10 -11 -8 -10 -24 44 -10 59 -13 hvcurveto
          hintmask 10001000
          -41 -31 -27 -25 -20 vvcurveto
          -13 10 -4 7 31 34 77 9 4 vhcurveto
          hintmask 00101000
          -12 5 34 -73 30 hhcurveto
          6 12 4 12 21 -28 25 -41 32 hvcurveto
          hintmask 10000010
          59 11 44 12 24 vvcurveto
          8 -10 10 -11 -32 -54 -44 -6 -5 vhcurveto
          hintmask 10000100
          7 30 5 26 20 vvcurveto
          endchar
        </CharString>
        <CharString name="at">
          -87 19 97 26 210 56 hstem
          -22 31 92 109 244 87 vstem
          399 43 rmoveto
          -68 callgsubr
          115 78 122 106 82 -46 72 -113 -229 -131 -169 -128 -79 49 -64 107 8 22 8 8 2 -4 1 -3 -101 -44 55 69 109 112 142 175 92 29 -63 -62 hvcurveto
          -59 -27 -58 -26 vhcurveto
          endchar
        </CharString>
        <CharString name="atilde">
          -34 callgsubr
          49 5 callsubr
          0 102 hintmask 1000101010000000
          -80 callgsubr
          hintmask 0010101010000000
          10 callgsubr
          hintmask 0100011010000000
          -62 callgsubr
          hintmask 1000101010000000
          -100 callsubr
          hvcurveto
          hintmask 0001100110000000
          5 callgsubr
          -232 329 -79 callsubr
          hintmask 1000101010000000
          -87 callsubr
          hintmask 1000100110000000
          -4 callgsubr
          endchar
        </CharString>
        <CharString name="b">
          33 -43 95 459 77 hstemhm
          -6 60 84 48 -23 116 hintmask 11110000
          138 453 rmoveto
          -49 -32 -171 -44 -39 vhcurveto
          -6 36 -2 35 23 vvcurveto
          58 21 165 44 14 5 -27 -31 vhcurveto
          -48 -496 rmoveto
          90 38 58 45 19 hvcurveto
          82 11 66 59 16 vvcurveto
          6 -5 5 -8 vhcurveto
          -14 -18 -23 -23 hhcurveto
          hintmask 11101000
          -20 -18 9 20 hvcurveto
          28 10 -1 26 vvcurveto
          15 -11 13 -15 -46 -54 -67 -58 -39 25 -14 14 -5 vhcurveto
          -5 -11 -17 -4 -8 hhcurveto
          -52 -29 52 57 -16 hvcurveto
          hintmask 11110000
          48 59 68 176 1 137 rrcurveto
          16 -11 39 -24 -80 -74 -256 -179 -3 vhcurveto
          -25 0 -171 96 vhcurveto
          endchar
        </CharString>
        <CharString name="backslash">
          37 -40 -29 callsubr
          -164 -18 callsubr
          -66 731 rmoveto
          -5 -24 -4 -4 -4 4 -12 5 -9 hvcurveto
          65 -137 198 -500 45 -105 rrcurveto
          -11 6 15 -12 15 hhcurveto
          5 17 4 7 2 -1 2 -1 3 hvcurveto
          -84 173 -148 395 -94 199 rrcurveto
          0 -7 13 -11 vhcurveto
          endchar
        </CharString>
        <CharString name="bar">
          -107 46 62 vstem
          100 -26 rmoveto
          64 2 365 139 vvcurveto
          205 -7 16 -14 -14 -20 -22 -19 -3 vhcurveto
          7 -31 9 -41 -50 -75 -12 -522 -111 14 callsubr
          endchar
        </CharString>
        <CharString name="braceleft">
          33 26 callgsubr
          33 154 -52 52 -52 213 -199 38 cntrmask 11100000
          hintmask 11100100
          308 773 rmoveto
          26 14 16 18 30 -37 40 -82 -76 -18 -69 -86 hvcurveto
          hintmask 11100010
          -76 14 -90 -68 vvcurveto
          -62 -11 -44 -44 vhcurveto
          hintmask 11110000
          -40 -21 -29 -29 -29 21 -29 40 hvcurveto
          hintmask 11100010
          44 11 -44 -62 hvcurveto
          hintmask 11101000
          -69 -14 -90 -76 vvcurveto
          -86 18 -68 76 -9 callsubr
          -103 -18 99 99 hvcurveto
          51 5 50 37 vvcurveto
          59 -7 45 -33 9 vhcurveto
          34 9 5 45 59 vvcurveto
          239 14 97 103 vhcurveto
          endchar
        </CharString>
        <CharString name="braceright">
          -13 26 callgsubr
          34 213 -56 42 -42 56 -56 158 cntrmask 11100000
          hintmask 11100100
          74 773 rmoveto
          103 14 -97 -239 -59 5 -45 34 -9 hvcurveto
          -33 -9 -7 -45 -59 -37 5 -50 -51 vvcurveto
          -99 -18 -99 -103 -25 -23 13 17 -18 vhcurveto
          4 -4 -3 2 -3 hhcurveto
          -5 -3 -5 -8 -58 97 -69 66 76 18 68 86 hvcurveto
          hintmask 11101000
          76 -14 90 69 vvcurveto
          62 11 44 44 vhcurveto
          hintmask 11100010
          41 20 29 29 29 -20 29 -41 hvcurveto
          hintmask 11101000
          -44 -11 44 62 hvcurveto
          hintmask 11110000
          68 14 90 76 vvcurveto
          86 -18 69 -76 -82 -37 -40 -30 -18 14 -16 26 vhcurveto
          endchar
        </CharString>
        <CharString name="bracketleft">
          -22 -166 92 810 94 hstemhm
          90 41 -41 143 hintmask 11100000
          172 -79 rmoveto
          -22 -19 284 233 161 9 137 24 hvcurveto
          3 43 -7 5 hhcurveto
          hintmask 11010000
          13 5 49 23 18 -83 11 -12 -35 -13 -230 -238 -259 15 -269 19 12 97 5 17 24 -5 46 -13 hvcurveto
          -5 -35 -5 -3 hhcurveto
          endchar
        </CharString>
        <CharString name="bracketright">
          -22 -166 87 815 94 hstemhm
          91 143 -41 41 hintmask 11100000
          152 -79 rmoveto
          -3 -35 5 -5 hhcurveto
          -13 -5 -46 -24 -17 97 -5 12 19 15 269 259 238 -13 230 -35 -12 -83 -11 -18 -23 5 -49 13 hvcurveto
          5 43 7 3 hhcurveto
          hintmask 11010000
          24 9 -137 -161 -233 -19 -284 -22 hvcurveto
          endchar
        </CharString>
        <CharString name="breve">
          13 callgsubr
          144 410 rmoveto
          -34 -9 -14 -20 -22 vvcurveto
          -35 35 -38 45 60 76 44 61 22 vhcurveto
          11 -33 3 -7 vhcurveto
          -36 -30 -29 -22 -26 hhcurveto
          -24 -22 19 44 -19 hvcurveto
          endchar
        </CharString>
        <CharString name="brokenbar">
          -107 46 62 vstem
          102 -26 rmoveto
          268 6 30 -16 -14 -21 2 -19 -3 vhcurveto
          2 -158 -6 -85 -120 14 callsubr
          -21 789 rmoveto
          -14 -20 -22 -19 -3 hvcurveto
          7 -31 9 -41 -50 -75 -3 11 -111 vvcurveto
          -31 10 -1 23 15 5 8 13 131 -13 218 -16 vhcurveto
          endchar
        </CharString>
        <CharString name="bullet">
          -63 56 142 hstem
          46 130 vstem
          46 127 rmoveto
          -40 29 -31 36 36 29 31 40 40 -29 40 callgsubr
          -40 vhcurveto
          endchar
        </CharString>
        <CharString name="c">
          -6 -46 91 94 119 -44 44 hstemhm
          -8 96 83 66 hintmask 10111000
          166 45 rmoveto
          -34 callsubr
          hintmask 11011000
          -11 callgsubr
          -112 -91 -125 -90 -50 29 -39 69 114 79 83 33 3 callgsubr
          endchar
        </CharString>
        <CharString name="caron">
          13 callgsubr
          99 410 -99 callgsubr
          endchar
        </CharString>
        <CharString name="ccedilla">
          -6 41 callgsubr
          114 45 vstem
          194 -64 rmoveto
          21 -23 -6 -6 16 vhcurveto
          72 24 46 54 25 vvcurveto
          3 callgsubr
          -27 callgsubr
          -112 -91 -125 -90 -47 24 -42 79 5 5 0 1 6 vhcurveto
          5 -8 13 -5 -19 -21 callgsubr
          endchar
        </CharString>
        <CharString name="cedilla">
          -80 41 callgsubr
          63 45 vstem
          143 -64 rmoveto
          24 -30 -11 26 10 13 7 15 vvcurveto
          4 -2 6 -11 -11 -43 -34 -22 vhcurveto
          -13 19 -3 -22 -21 callgsubr
          endchar
        </CharString>
        <CharString name="cent">
          5 -67 -21 323 44 52 -20 hstem
          12 96 12 33 38 66 vstem
          186 66 rmoveto
          -27 callgsubr
          -22 -21 -5 -8 -19 vhcurveto
          56 23 callsubr
          -52 vlineto
          -64 -43 -44 -79 -62 vvcurveto
          -50 29 -40 69 vhcurveto
          -54 23 callgsubr
          36 vlineto
          95 13 65 70 30 vvcurveto
          3 callgsubr
          endchar
        </CharString>
        <CharString name="circumflex">
          13 callgsubr
          99 290 -107 callsubr
          endchar
        </CharString>
        <CharString name="colon">
          -63 -22 118 60 118 hstem
          50 108 vstem
          50 215 -93 callsubr
          7 -178 -93 callsubr
          endchar
        </CharString>
        <CharString name="comma">
          -52 -104 -6 callsubr
          48 rmoveto
          -66 callsubr
          hintmask 11100000
          -59 callgsubr
          2 3 -4 5 hhcurveto
          -14 callsubr
          hvcurveto
          39 callsubr
        </CharString>
        <CharString name="copyright">
          -3 callsubr
          293 152 rmoveto
          -39 -24 31 38 34 18 32 30 9 10 -14 -14 hvcurveto
          -14 -12 -1 -10 vvcurveto
          -3 2 -4 3 27 33 36 28 18 -14 14 -20 -89 -73 -100 -72 -40 23 -32 55 91 63 67 26 5 -3 2 -4 vhcurveto
          -15 -11 -27 -60 hhcurveto
          -61 -126 15 callgsubr
          -100 -94 -126 -114 hvcurveto
          -35 callsubr
        </CharString>
        <CharString name="currency">
          2 23 61 -58 -21 156 55 29 -20 hstemhm
          48 66 74 53 hintmask 10111100
          146 161 rmoveto
          28 14 -19 -20 -20 -13 -18 -25 -24 -12 21 20 18 10 18 22 hvcurveto
          18 55 rmoveto
          -25 -22 -10 -16 -17 hvcurveto
          -32 27 rlineto
          0 -2 2 -5 vhcurveto
          0 -13 0 -17 vvcurveto
          -8 4 -6 27 -25 vhcurveto
          -14 -23 -8 -26 -24 vvcurveto
          -12 2 -11 4 -10 vhcurveto
          -20 -34 rlineto
          -1 -3 0 -2 -2 vvcurveto
          hintmask 01111100
          -8 13 -3 4 9 6 6 13 8 vhcurveto
          4 7 rlineto
          hintmask 10111100
          -5 9 11 -3 14 hhcurveto
          28 25 11 16 20 hvcurveto
          hintmask 01111100
          28 -24 rlineto
          -3 3 3 -1 2 hhcurveto
          7 4 9 9 3 hvcurveto
          -1 6 -2 8 -25 20 rrcurveto
          16 23 10 26 24 vvcurveto
          20 -6 18 -14 12 vhcurveto
          18 31 rlineto
          12 -3 5 -14 -8 -7 -5 -13 -7 vhcurveto
          -8 -14 rlineto
          2 -8 -10 1 -10 hhcurveto
          endchar
        </CharString>
        <CharString name="d">
          152 -35 86 -66 -21 576 62 hstemhm
          0 103 75 50 79 34 hintmask 10111100
          228 379 rmoveto
          45 17 116 35 16 11 -30 -76 -35 -21 -127 -37 -94 vhcurveto
          -17 63 -4 76 62 vvcurveto
          -73 -309 rmoveto
          35 callsubr
          hvcurveto
          -9 callgsubr
          53 44 28 43 35 hvcurveto
          hintmask 01111100
          -44 18 30 -28 47 hhcurveto
          68 54 72 0 hvcurveto
          4 5 2 5 4 vvcurveto
          7 -5 4 -8 vhcurveto
          hintmask 10111100
          -8 -20 -10 -10 hhcurveto
          -56 -35 35 51 -22 hvcurveto
          59 136 19 175 55 vvcurveto
          36 -11 63 -34 -78 -40 -250 -135 -49 3 -45 8 -39 vhcurveto
          -9 -11 -11 -5 -12 hhcurveto
          endchar
        </CharString>
        <CharString name="dagger">
          98 -58 98 712 -20 hstemhm
          111 75 -75 241 hintmask 11010000
          197 737 rmoveto
          -2 -4 -19 -76 -21 -103 -6 -2 -6 -2 -5 -1 -52 -15 -41 -17 -16 -11 rrcurveto
          -4 -3 -13 -36 -16 vvcurveto
          -4 2 -2 3 1 2 0 1 2 vhcurveto
          26 19 47 17 50 15 rrcurveto
          -18 -101 -16 -118 -101 vvcurveto
          -132 27 -103 83 54 77 43 43 8 -5 7 -7 -5 -6 -2 -1 -17 vhcurveto
          hintmask 11100000
          -96 -30 134 156 59 4 63 7 60 hvcurveto
          57 14 52 9 21 2 rrcurveto
          14 1 7 30 11 vvcurveto
          8 -8 2 -3 -35 -52 -11 -11 -46 vhcurveto
          10 71 13 63 12 43 rrcurveto
          4 -2 4 -8 vhcurveto
          -15 -1 -14 -8 -3 -6 rrcurveto
          endchar
        </CharString>
        <CharString name="degree">
          -77 291 67 hstem
          -29 65 104 66 vstem
          115 260 rmoveto
          29 14 -20 -20 -19 -14 -19 -26 -24 -12 21 20 19 11 18 22 hvcurveto
          17 37 rmoveto
          -53 -36 -58 -45 -30 15 -24 37 58 41 57 45 30 -18 25 -44 hvcurveto
          endchar
        </CharString>
        <CharString name="dieresis">
          225 294 118 hstem
          130 -5 callsubr
          vstem
          270 353 rmoveto
          -105 callgsubr
          endchar
        </CharString>
        <CharString name="divide">
          17 99 -19 callgsubr
          103 224 rmoveto
          7 callgsubr
          -191 vmoveto
          7 callgsubr
          169 87 rmoveto
          -70 callgsubr
          -2 callgsubr
        </CharString>
        <CharString name="dollar">
          6 -69 -21 52 70 173 99 -58 58 51 -20 hstemhm
          12 138 -80 80 8 137 -106 77 hintmask 1101101100000000
          295 262 rmoveto
          41 -32 1 -19 -15 -19 -5 -8 -19 vhcurveto
          55 23 callsubr
          -51 vlineto
          -46 -26 -42 -41 -37 vvcurveto
          hintmask 1101110010000000
          -22 callsubr
          7 7 1 2 9 vhcurveto
          -46 23 callgsubr
          33 vlineto
          55 18 61 39 46 -31 callgsubr
          hintmask 1110110100000000
          38 callgsubr
          vhcurveto
          endchar
        </CharString>
        <CharString name="dotaccent">
          -41 294 118 hstem
          10 108 vstem
          10 -8 callgsubr
          endchar
        </CharString>
        <CharString name="dotlessi">
          -41 -41 104 155 -20 hstem
          1 59 vstem
          233 93 -42 callgsubr
        </CharString>
        <CharString name="e">
          -34 -42 92 179 61 hstem
          -9 83 60 64 vstem
          -82 callsubr
          34 -153 -98 callgsubr
        </CharString>
        <CharString name="eacute">
          -34 -39 -10 callsubr
          -82 callsubr
          89 195 -104 callsubr
          -55 -348 -98 callgsubr
        </CharString>
        <CharString name="ecircumflex">
          -34 282 50 hstem
          17 -2 callsubr
          -82 callsubr
          -86 109 -107 callsubr
          120 -262 -98 callgsubr
        </CharString>
        <CharString name="edieresis">
          -34 -42 92 179 61 24 16 callsubr
          -9 83 -83 114 29 64 -64 111 hintmask 11110010
          -82 callsubr
          -137 170 rmoveto
          -33 24 -26 30 vhcurveto
          hintmask 11101010
          -106 callsubr
          hvcurveto
          -40 callgsubr
          31 -323 rmoveto
          -18 callgsubr
          hintmask 11110100
          -101 callgsubr
        </CharString>
        <CharString name="egrave">
          -34 -40 -10 callsubr
          -82 callsubr
          -116 208 -103 callsubr
          150 -361 -98 callgsubr
        </CharString>
        <CharString name="eight">
          48 -16 30 214 28 hstem
          30 95 96 92 vstem
          218 38 rmoveto
          -27 -27 -18 -14 -21 -11 31 26 21 3 12 17 vhcurveto
          41 -18 12 -7 -20 vvcurveto
          -18 160 rmoveto
          -30 -8 -7 -15 -3 vhcurveto
          -39 20 -10 7 18 vvcurveto
          31 27 16 19 21 5 -28 -24 vhcurveto
          31 -58 rmoveto
          28 16 50 46 35 vvcurveto
          37 -38 16 -48 -79 -106 -45 -71 vhcurveto
          -58 76 0 -15 -12 -73 -8 -68 vvcurveto
          -42 47 -16 43 77 97 54 61 51 -74 19 0 vhcurveto
          endchar
        </CharString>
        <CharString name="ellipsis">
          217 -22 118 hstem
          57 108 32 -5 callsubr
          cntrmask 01110000
          337 37 rmoveto
          -33 24 -26 30 30 24 26 33 33 -24 26 -30 -30 -24 -26 -33 vhcurveto
          -140 hmoveto
          -105 callgsubr
          endchar
        </CharString>
        <CharString name="emdash">
          403 99 -19 callgsubr
          641 120 rmoveto
          29 -54 3 -24 vhcurveto
          -123 -371 -70 callsubr
          454 32 callsubr
          -2 callgsubr
        </CharString>
        <CharString name="endash">
          26 callsubr
          120 -36 callgsubr
        </CharString>
        <CharString name="equal">
          17 92 -19 callgsubr
          272 163 rmoveto
          26 -54 6 -25 callsubr
          19 -90 rmoveto
          30 -54 2 -25 callsubr
          endchar
        </CharString>
        <CharString name="eth">
          27 -35 105 395 116 hstem
          0 103 132 29 vstem
          132 345 rmoveto
          -3 -2 -8 -28 -11 vvcurveto
          -5 2 -1 1 1 2 0 1 1 vhcurveto
          21 19 43 17 41 13 rrcurveto
          1 -17 1 -17 -17 vvcurveto
          -115 -24 -112 -56 35 callsubr
          vhcurveto
          -9 callgsubr
          132 60 186 167 13 0 13 -1 13 hvcurveto
          26 7 22 4 10 1 rrcurveto
          8 1 4 25 8 vvcurveto
          6 -5 1 -2 -18 -25 -6 -6 -24 vhcurveto
          102 -13 -37 81 -59 hhcurveto
          -40 -15 -19 -22 -33 34 -42 37 4 3 5 3 hvcurveto
          6 -17 28 18 vvcurveto
          8 3 6 10 1 vhcurveto
          30 22 -67 -84 9 hvcurveto
          -12 -3 -10 -4 -8 -3 -32 -12 -26 -13 -10 -9 rrcurveto
          endchar
        </CharString>
        <CharString name="exclam">
          -32 -38 39 callgsubr
          24 rmoveto
          40 29 31 36 36 28 -31 -40 -39 -28 -31 -36 -36 -29 31 39 vhcurveto
          139 534 rmoveto
          48 -45 12 -25 -36 -36 -20 -40 vhcurveto
          -76 52 -64 -254 vvcurveto
          -10 10 -7 10 9 9 6 11 vhcurveto
          254 52 64 76 vvcurveto
          endchar
        </CharString>
        <CharString name="exclamdown">
          -32 -387 39 callgsubr
          199 rmoveto
          -40 29 -31 36 36 28 31 40 39 -28 40 callgsubr
          -39 vhcurveto
          139 -534 rmoveto
          -48 -45 -12 -25 -36 -36 20 40 vhcurveto
          76 52 64 254 vvcurveto
          10 10 7 10 9 9 -6 -11 vhcurveto
          -254 52 -64 -76 vvcurveto
          endchar
        </CharString>
        <CharString name="f">
          -56 20 callgsubr
          456 108 hstemhm
          47 85 -73 46 63 41 hintmask 11101100
          168 458 -55 callsubr
          -192 -463 rmoveto
          -5 callgsubr
          hintmask 11110100
          -71 callgsubr
          hintmask 11101100
          -36 callsubr
        </CharString>
        <CharString name="fi">
          178 20 callgsubr
          22 231 118 193 -108 108 hstemhm
          47 85 -73 46 0 63 0 52 0 59 -59 117 hintmask 1111010000100000
          229 353 rmoveto
          33 24 26 30 30 24 -26 -33 -33 -24 -26 -30 -30 -24 26 33 vhcurveto
          hintmask 1110100100100000
          -61 105 -55 callsubr
          284 -365 -24 callsubr
          hvcurveto
          hintmask 1111010001000000
          -51 callgsubr
          -476 -98 rmoveto
          -14 30 -30 51 -8 vhcurveto
          -32 vlineto
          -71 callgsubr
          hintmask 1111001010000000
          -36 callsubr
        </CharString>
        <CharString name="five">
          2 -40 84 145 60 hstem
          47 49 48 91 vstem
          109 233 rmoveto
          61 45 -40 24 hhcurveto
          12 6 10 30 53 -42 -1 -2 1 hvcurveto
          -95 -87 -4 -82 hvcurveto
          -51 116 -54 -43 vvcurveto
          -29 -18 -18 -15 -11 -10 10 22 4 -2 6 -12 -7 -61 -31 -40 -14 26 -7 36 75 117 35 91 vhcurveto
          63 -175 28 34 vvcurveto
          25 6 2 13 vhcurveto
          endchar
        </CharString>
        <CharString name="fl">
          200 20 callgsubr
          -71 98 429 108 -51 77 hstemhm
          59 46 -46 73 36 41 2 53 83 37 hintmask 1101010111000000
          168 458 -55 callsubr
          179 43 rmoveto
          -102 -24 -115 -37 -89 vhcurveto
          -17 58 -5 68 51 vvcurveto
          hintmask 1100110111000000
          13 callsubr
          vhcurveto
          37 68 rmoveto
          -21 callsubr
          -34 0 -50 12 -47 vhcurveto
          -29 -25 -27 -16 -27 hhcurveto
          -24 -15 6 7 -10 hvcurveto
          75 vlineto
          18 callsubr
          hintmask 1101001111000000
          -55 callgsubr
          -11 12 -3 8 19 callgsubr
          vhcurveto
          1 22 61 1 50 39 41 58 rlinecurve
          hintmask 1011010111000000
          -39 19 33 -30 56 hhcurveto
          -15 callgsubr
          hvcurveto
          -8 -20 -23 -12 -23 hhcurveto
          -59 -36 38 52 -23 hvcurveto
          61 156 23 194 61 vvcurveto
          endchar
        </CharString>
        <CharString name="four">
          16 113 36 hstem
          48 93 35 80 vstem
          286 291 rmoveto
          -106 -3 -137 0 hvcurveto
          -21 -21 14 55 hvcurveto
          20 8 20 13 vvcurveto
          10 -4 6 -16 -13 -86 -22 -103 -23 18 -59 51 vhcurveto
          36 39 51 8 hhcurveto
          6 1 -6 -9 hvcurveto
          -23 vlineto
          -47 3 -81 1 -2 vhcurveto
          -9 6 10 -4 11 hhcurveto
          30 38 28 33 1 hvcurveto
          18 -10 17 66 99 32 47 18 vvcurveto
          7 -5 3 -14 vhcurveto
          endchar
        </CharString>
        <CharString name="foursuperior">
          -70 -32 callgsubr
          hstem
          23 -39 callsubr
          vstem
          173 251 -92 callgsubr
          endchar
        </CharString>
        <CharString name="fraction">
          -87 -40 -29 callsubr
          -59 -18 callsubr
          202 363 -64 callgsubr
          endchar
        </CharString>
        <CharString name="g">
          49 -429 -21 132 -20 295 109 82 95 -46 46 hstemhm
          10 107 -28 80 50 28 -28 62 hintmask 1110101100000000
          169 -259 rmoveto
          48 4 46 45 68 vhcurveto
          1 -30 0 -26 -23 vvcurveto
          -100 -6 -42 -17 vhcurveto
          -27 3 0 56 0 vvcurveto
          56 502 rmoveto
          hintmask 1111010100000000
          -113 -102 -131 -85 hvcurveto
          hintmask 1111001100000000
          -40 23 -30 56 vhcurveto
          63 57 79 7 hhcurveto
          1 -36 0 -32 1 -30 rrcurveto
          -66 -83 -63 -103 -85 vvcurveto
          -71 24 -46 45 77 12 137 135 41 -1 40 -1 36 vhcurveto
          30 38 43 44 59 53 rrcurveto
          8 7 3 7 4 vvcurveto
          5 -3 2 -6 -6 -10 -3 -8 -8 vhcurveto
          -13 -12 -47 -46 -51 -60 rrcurveto
          32 0 28 3 20 vhcurveto
          5 38 10 14 26 vvcurveto
          9 -3 4 -6 -11 -13 0 -26 -7 vhcurveto
          -27 -8 -36 -22 -21 hhcurveto
          hintmask 1110110100000000
          -18 -22 15 34 33 29 49 44 29 callgsubr
          hintmask 1110110010000000
          24 callgsubr
          vhcurveto
          endchar
        </CharString>
        <CharString name="germandbls">
          -8 20 callgsubr
          456 108 hstem
          28 24 -24 46 63 41 18 69 vstem
          63 61 rmoveto
          15 0 21 1 24 vhcurveto
          1 1 0 1 1 1 callgsubr
          -9 -4 -13 -79 -24 -15 5 7 -12 hvcurveto
          1 8 rlineto
          74 397 rmoveto
          -172 -42 -75 -29 -44 vhcurveto
          3 75 5 80 -40 callsubr
          -119 -805 rmoveto
          -6 9 -8 8 6 6 5 13 vhcurveto
          11 284 rlineto
          160 7 47 137 59 vvcurveto
          54 -65 60 -35 -9 -20 -17 -24 -22 vhcurveto
          32 78 32 110 116 vvcurveto
          -55 callgsubr
          endchar
        </CharString>
        <CharString name="grave">
          30 -7 -10 callsubr
          51 373 -103 callsubr
          endchar
        </CharString>
        <CharString name="greater">
          29 13 -21 125 46 120 -20 hstem
          65 272 rmoveto
          6 -2 -8 5 -6 hhcurveto
          -5 -5 -4 -10 -79 179 -27 0 hvcurveto
          -59 -3 -133 -71 -66 vvcurveto
          -12 9 -19 16 vhcurveto
          19 61 125 34 callsubr
          15 -34 52 -9 3 hvcurveto
          -32 11 -156 35 -14 35 rrcurveto
          endchar
        </CharString>
        <CharString name="greaterequal">
          39 33 46 -32 -21 85 47 124 -20 hstemhm
          20 248 hintmask 01111000
          54 276 rmoveto
          4 -4 -6 2 -6 hhcurveto
          -9 -4 -4 -6 -26 76 -71 123 -23 hvcurveto
          2 -34 -42 4 -37 hhcurveto
          -55 -46 -8 -35 -6 1 -6 3 -8 hvcurveto
          14 23 52 2 34 callsubr
          hvcurveto
          12 12 36 16 vvcurveto
          4 -1 2 -2 1 vhcurveto
          -32 11 -160 49 -31 30 rrcurveto
          214 -229 rmoveto
          hintmask 10111000
          -9 -14 -5 -37 vhcurveto
          hintmask 01111000
          -18 -85 0 -7 -77 hvcurveto
          -4 -13 12 23 18 26 4 17 hvcurveto
          hintmask 10111000
          2 22 -4 123 hhcurveto
          hintmask 01111000
          24 34 -9 -23 hvcurveto
          endchar
        </CharString>
        <CharString name="guillemotleft">
          146 24 callsubr
          342 -42 rmoveto
          14 20 19 27 25 -17 32 -57 29 hvcurveto
          53 20 19 36 29 vvcurveto
          26 -15 21 -17 19 callsubr
          -62 14 -45 vvcurveto
          -45 62 2 callsubr
          -105 49 -52 callsubr
        </CharString>
        <CharString name="guillemotright">
          146 0 50 hstem
          -18 -2 callsubr
          78 -42 rmoveto
          11 11 9 20 14 hvcurveto
          37 72 62 -14 45 vvcurveto
          45 -62 2 callgsubr
          -17 -15 -21 -26 -29 19 -36 53 -20 hvcurveto
          -57 -29 -17 -32 -25 vvcurveto
          -27 20 -19 14 vhcurveto
          105 49 -50 callsubr
        </CharString>
        <CharString name="guilsinglleft">
          6 24 callsubr
          237 7 -52 callsubr
        </CharString>
        <CharString name="guilsinglright">
          6 24 callsubr
          43 7 -50 callsubr
        </CharString>
        <CharString name="h">
          55 -37 77 -77 219 385 92 hstemhm
          4 33 71 54 hintmask 10111000
          78 567 rmoveto
          22 8 -22 -33 -74 -42 -130 -29 -72 hvcurveto
          60 vlineto
          133 9 138 32 vhcurveto
          -31 -518 rmoveto
          -2 -4 59 76 -2 hvcurveto
          40 71 83 196 117 vvcurveto
          54 -17 37 -48 -89 -4 -359 -77 -131 8 -96 1 -10 vhcurveto
          -9 1 6 -3 6 hhcurveto
          6 7 3 3 3 hvcurveto
          6 7 57 69 7 7 rrcurveto
          3 4 3 2 2 hhcurveto
          3 1 -2 -4 2 hvcurveto
          -56 19 40 -43 61 hhcurveto
          78 35 60 17 1 hvcurveto
          5 -1 3 -3 -2 -2 -1 -2 -3 vhcurveto
          -4 -6 -11 -1 -11 hhcurveto
          hintmask 01111000
          -107 -13 143 -1 -34 hvcurveto
          -1 -28 -72 -132 -21 hhcurveto
          endchar
        </CharString>
        <CharString name="hungarumlaut">
          30 -63 -10 callsubr
          229 436 rmoveto
          -37 callgsubr
          -97 hmoveto
          -37 callgsubr
          endchar
        </CharString>
        <CharString name="hyphen">
          -65 callsubr
        </CharString>
        <CharString name="i">
          -41 -41 104 231 16 callsubr
          1 59 -59 117 hintmask 11010000
          10 -8 callgsubr
          223 -260 9 callgsubr
          hintmask 11100000
          -78 callsubr
        </CharString>
        <CharString name="iacute">
          -41 -82 -10 callsubr
          180 370 -104 callsubr
          53 -277 -42 callgsubr
        </CharString>
        <CharString name="icircumflex">
          -41 242 50 hstem
          -63 -2 callsubr
          -32 272 -107 callsubr
          265 -179 -47 callgsubr
        </CharString>
        <CharString name="idieresis">
          -41 -41 104 231 16 callsubr
          -72 108 -35 59 8 108 hintmask 11101000
          68 353 rmoveto
          -105 callgsubr
          305 -260 9 callgsubr
          hintmask 11011000
          -78 callsubr
        </CharString>
        <CharString name="igrave">
          -41 -105 -10 callsubr
          -47 363 -103 callsubr
          280 -270 -47 callgsubr
        </CharString>
        <CharString name="j">
          -47 -401 108 200 146 241 16 callsubr
          -79 54 55 66 -66 108 -63 21 -21 33 -33 149 hintmask 1111010000000000
          30 -8 callgsubr
          hintmask 1111001000000000
          45 -595 rmoveto
          -15 -1 -36 -18 -52 -29 108 56 59 49 43 45 4 vhcurveto
          3 -75 3 -74 -70 vvcurveto
          -21 406 rmoveto
          -7 callsubr
          -11 vlineto
          -42 0 -42 2 -42 vhcurveto
          -82 -44 -64 -99 -124 vvcurveto
          hintmask 1111100000000000
          -104 62 -57 47 vhcurveto
          hintmask 1111000100000000
          35 43 14 79 114 -5 77 -3 91 hvcurveto
          19 -7 9 -18 19 -29 rrcurveto
          -8 3 4 -5 6 hhcurveto
          hintmask 1111000010000000
          20 44 55 24 39 -26 28 -31 -24 -23 -5 -8 -23 hvcurveto
          hintmask 1111100000000000
          -1 42 0 46 54 24 9 15 10 vvcurveto
          40 callsubr
          -5 -53 -3 callgsubr
          endchar
        </CharString>
        <CharString name="k">
          -4 -41 112 148 104 229 91 hstemhm
          8 29 25 41 0 43 hintmask 11111000
          103 496 rmoveto
          -77 -39 -124 -27 -66 vhcurveto
          139 vlineto
          140 8 20 44 16 hhcurveto
          12 10 -27 -29 hvcurveto
          190 -380 rmoveto
          4 3 4 2 3 hhcurveto
          7 6 -9 -10 -30 -83 -114 -82 -37 -52 37 71 57 25 53 9 hvcurveto
          5 -2 0 -8 -10 vvcurveto
          -13 38 -73 66 55 33 45 0 vhcurveto
          -255 65 rmoveto
          hintmask 11110100
          34 66 74 196 114 vvcurveto
          51 -15 35 -39 -77 -7 -173 -188 vhcurveto
          -142 vlineto
          -58 -1 -56 -3 -49 vhcurveto
          -5 1 -4 4 17 10 6 24 56 10 165 82 vhcurveto
          27 -9 -19 15 hhcurveto
          22 26 56 20 22 -6 25 -29 -57 -46 -86 -70 -24 hvcurveto
          -1 -1 -2 -3 -2 hhcurveto
          -2 -2 3 9 hvcurveto
          endchar
        </CharString>
        <CharString name="l">
          -17 callgsubr
          -152 -45 -88 -24 -36 vhcurveto
          -11 51 -3 54 42 17 callgsubr
          55 68 -22 hvcurveto
          63 86 34 120 172 vvcurveto
          -21 callsubr
          -77 3 -170 133 -15 callgsubr
          vhcurveto
          endchar
        </CharString>
        <CharString name="less">
          54 -29 171 -46 46 120 -20 hstemhm
          hintmask 01100000
          271 251 rmoveto
          -14 -35 -156 -35 10 callsubr
          hintmask 10100000
          153 61 -125 19 hhcurveto
          16 9 19 12 66 -133 71 -59 3 hvcurveto
          0 179 27 79 vvcurveto
          10 -5 4 -5 -6 -8 -5 -6 -2 vhcurveto
          endchar
        </CharString>
        <CharString name="lessequal">
          39 33 46 -32 -21 101 40 126 -20 hstemhm
          hintmask 01110000
          268 47 rmoveto
          hintmask 10110000
          9 callsubr
          -123 -22 4 -2 -28 callgsubr
          hvcurveto
          hintmask 01110000
          -10 callgsubr
          vhcurveto
          hintmask 10110000
          7 77 85 32 callsubr
          hintmask 01110000
          -26 callsubr
          13 238 rmoveto
          -33 -33 -133 -40 10 callsubr
          153 48 -41 19 hhcurveto
          16 9 7 8 8 vvcurveto
          34 -132 22 -51 vhcurveto
          0 185 33 79 vvcurveto
          10 -5 4 -7 -6 -8 -4 -4 -4 vhcurveto
          endchar
        </CharString>
        <CharString name="logicalnot">
          -41 callgsubr
          1 hlineto
          -1 -46 18 callgsubr
          29 -2 31 -1 28 rrcurveto
          endchar
        </CharString>
        <CharString name="lslash">
          -17 callgsubr
          -146 -41 -86 -24 -39 vhcurveto
          -2 -1 0 -1 -2 hvcurveto
          -10 50 -3 52 41 17 callgsubr
          54 68 -21 hvcurveto
          45 11 43 8 17 -12 callsubr
          -22 -31 -6 -6 -30 vhcurveto
          44 81 23 107 142 vvcurveto
          -21 callsubr
          -8 vlineto
          -23 -9 -18 -8 -9 -6 rrcurveto
          -69 callgsubr
          13 9 20 9 23 9 rrcurveto
          -84 5 21 -113 109 hhcurveto
          -15 callgsubr
          hvcurveto
          endchar
        </CharString>
        <CharString name="m">
          383 -40 124 -122 95 -95 107 4 27 -27 110 -110 131 hstemhm
          hintmask 01001000
          626 57 rmoveto
          -75 -56 126 -37 hhcurveto
          hintmask 10000000
          -35 -54 -99 -23 -18 22 98 -55 hhcurveto
          hintmask 01010000
          -36 -38 -82 -23 hhcurveto
          hintmask 01000100
          -25 -38 104 -30 hhcurveto
          -23 -70 -80 -20 -3 2 -2 3 hvcurveto
          1 40 45 -128 22 37 36 101 24 hhcurveto
          hintmask 10000000
          22 -36 -113 62 37 62 120 29 hhcurveto
          hintmask 00110000
          26 55 -118 73 hhcurveto
          45 70 69 21 24 hvcurveto
          4 4 1 2 3 vvcurveto
          5 -7 3 -10 vhcurveto
          hintmask 01010000
          -16 -15 -12 -21 hhcurveto
          endchar
        </CharString>
        <CharString name="macron">
          83 301 46 -32 -21 57 -20 hstemhm
          hintmask 01100000
          304 315 rmoveto
          hintmask 10000000
          9 callsubr
          hintmask 01100000
          -123 -22 4 -2 -45 callsubr
          hintmask 10000000
          7 77 85 32 callsubr
          hintmask 01100000
          -2 callgsubr
        </CharString>
        <CharString name="minus">
          -41 callgsubr
          -2 callgsubr
        </CharString>
        <CharString name="multiply">
          -8 92 -19 callgsubr
          228 29 rmoveto
          9 9 4 7 7 vvcurveto
          7 -5 6 -7 7 vhcurveto
          -44 45 21 20 25 22 24 20 rlinecurve
          1 1 1 2 4 vvcurveto
          7 -3 12 -11 11 vhcurveto
          3 -3 -5 2 -4 hhcurveto
          -12 -13 -11 -9 -9 hvcurveto
          -2 -1 0 -1 -45 -47 rrcurveto
          43 -42 -9 24 -25 hhcurveto
          -18 -8 -28 -7 -4 1 -2 1 -1 hvcurveto
          22 -20 24 -20 20 -19 rrcurveto
          -52 -53 -13 -5 -19 vvcurveto
          -18 28 -8 7 4 2 1 1 1 vhcurveto
          19 23 21 24 19 20 rrcurveto
          -49 50 12 -9 8 hhcurveto
          2 3 1 2 1 hvcurveto
          endchar
        </CharString>
        <CharString name="n">
          36 callgsubr
          hstemhm
          hintmask 01100000
          10 86 -7 callgsubr
          hintmask 10100000
          -31 callsubr
          hintmask 01100000
          12 callsubr
        </CharString>
        <CharString name="nine">
          43 58 37 163 56 hstem
          35 76 115 90 vstem
          168 254 rmoveto
          27 29 -31 -76 4 hvcurveto
          -11 -21 -19 -4 -16 hhcurveto
          -35 -16 28 30 31 18 33 29 hvcurveto
          -35 -162 rmoveto
          28 32 8 23 35 hvcurveto
          -59 -5 -58 -52 -25 hhcurveto
          -7 -4 5 10 hvcurveto
          1 19 rlineto
          9 -2 6 -12 -56 -9 -49 -5 -33 21 -15 29 76 138 99 121 62 -37 52 -88 -94 -68 -72 -58 -39 31 -32 74 vhcurveto
          endchar
        </CharString>
        <CharString name="ntilde">
          36 callgsubr
          67 5 callsubr
          hintmask 10101000
          168 338 -79 callsubr
          hintmask 10110000
          -87 callsubr
          hintmask 01101000
          -4 callgsubr
          -158 -252 -7 callgsubr
          hintmask 10110000
          -31 callsubr
          hintmask 01110000
          12 callsubr
        </CharString>
        <CharString name="numbersign">
          11 -32 230 -115 129 -67 53 -53 144 hstemhm
          hintmask 00010000
          143 154 rmoveto
          26 1 -2 -12 -1 -8 -1 -9 rlinecurve
          -9 -9 -1 -1 -8 hvcurveto
          86 165 rmoveto
          -31 -3 -18 -3 hvcurveto
          -6 -23 -5 -20 -4 -21 rrcurveto
          -7 -8 -1 -1 -8 hvcurveto
          3 16 4 15 6 17 rrcurveto
          1 4 3 11 4 vvcurveto
          16 -12 4 -8 -31 -3 -18 -3 vhcurveto
          hintmask 00100000
          -6 -25 -5 -22 -4 -23 rrcurveto
          -1 -22 -18 -1 -21 hhcurveto
          -5 -5 -13 -13 -12 5 -13 15 hvcurveto
          16 2 14 1 13 2 -1 -10 -1 -9 -2 -9 rrcurveto
          -2 -17 -15 0 -17 hhcurveto
          -5 -5 -14 -13 -13 5 -12 15 hvcurveto
          11 1 10 1 8 1 -5 -21 -5 -26 -9 -28 rrcurveto
          -1 -4 0 -4 -3 vvcurveto
          hintmask 10000000
          -15 9 -2 5 19 14 14 14 5 vhcurveto
          10 28 6 27 4 25 25 2 rcurveline
          -5 -25 -7 -26 -9 -31 rrcurveto
          -1 -4 0 -4 -3 vvcurveto
          -15 8 -2 6 19 13 14 14 6 vhcurveto
          10 29 6 28 5 27 rrcurveto
          hintmask 01000000
          21 1 22 0 27 2 rrcurveto
          7 12 16 14 11 -8 11 -24 hvcurveto
          -50 -5 2 9 1 9 1 9 rlinecurve
          19 1 18 0 23 1 rrcurveto
          8 2 20 19 15 vvcurveto
          9 -8 8 -25 -3 -3 0 -4 -38 vhcurveto
          3 14 4 13 5 15 rrcurveto
          1 4 3 11 4 vvcurveto
          hintmask 00010000
          16 -12 4 -8 vhcurveto
          endchar
        </CharString>
        <CharString name="o">
          -16 callsubr
          hstemhm
          1 101 hintmask 10011000
          -89 callgsubr
          hintmask 01001000
          -58 callgsubr
          hvcurveto
          hintmask 10101000
          3 callsubr
          endchar
        </CharString>
        <CharString name="oacute">
          5 -8 -10 callsubr
          -89 callgsubr
          -58 callgsubr
          4 -2 3 -6 hvcurveto
          20 callsubr
          -16 210 -104 callsubr
          endchar
        </CharString>
        <CharString name="ocircumflex">
          5 22 callgsubr
          44 238 -73 callsubr
          -195 127 -107 callsubr
          endchar
        </CharString>
        <CharString name="odieresis">
          -16 callsubr
          42 16 callsubr
          1 101 -76 -5 callsubr
          hintmask 10011101
          -89 callgsubr
          hintmask 01001101
          -58 callgsubr
          hvcurveto
          hintmask 10101011
          3 callsubr
          -244 190 -93 callsubr
          -40 callgsubr
          endchar
        </CharString>
        <CharString name="oe">
          192 -42 92 -92 106 -106 241 -224 -21 151 147 -23 23 -23 61 hstemhm
          1 101 15 183 60 64 hintmask 1000001111000000
          360 -87 callgsubr
          -242 -13 rmoveto
          hintmask 0100100111000000
          -45 5 33 -40 67 hhcurveto
          -44 callsubr
          19 7 7 vhcurveto
          hintmask 0001100111000000
          -31 -234 rmoveto
          50 48 41 46 34 hvcurveto
          hintmask 1000001111000000
          -47 5 29 -36 68 hhcurveto
          85 68 77 57 35 hvcurveto
          -86 callgsubr
          11 callgsubr
          -49 -51 -47 -58 -35 vhcurveto
          hintmask 1000100111000000
          38 -14 -25 29 -49 hhcurveto
          hintmask 0010010111000000
          -29 -23 -19 -34 hvcurveto
          -1 hlineto
          -56 -1 -59 -95 -55 vvcurveto
          hintmask 0001100111000000
          -67 40 -27 44 vhcurveto
          endchar
        </CharString>
        <CharString name="ogonek">
          83 41 callgsubr
          63 45 vstem
          167 -101 rmoveto
          -32 -22 24 22 hvcurveto
          25 25 26 8 vvcurveto
          4 -2 1 -4 -15 -64 -52 -30 -35 35 -16 48 28 16 5 8 4 -5 6 -8 vhcurveto
          endchar
        </CharString>
        <CharString name="ograve">
          5 -12 143 -73 callsubr
          -224 210 -103 callsubr
          endchar
        </CharString>
        <CharString name="one">
          -62 31 124 vstem
          144 285 rmoveto
          -5 -121 -26 -19 hvcurveto
          -28 61 18 -75 -25 -14 -93 -17 vvcurveto
          -47 23 -18 25 29 32 24 30 vhcurveto
          -8 37 -3 32 30 67 15 49 29 vvcurveto
          21 -8 11 -26 vhcurveto
          endchar
        </CharString>
        <CharString name="onehalf">
          107 -32 callgsubr
          hstemhm
          -23 -39 callsubr
          hintmask 1010101100000000
          hintmask 0101000010000000
          93 257 -72 callgsubr
          hintmask 0000010000000000
          195 -189 -72 callsubr
          -63 209 -77 callsubr
          4 -24 4 -5 vhcurveto
          endchar
        </CharString>
        <CharString name="onequarter">
          140 -19 callsubr
          112 51 hstemhm
          7 -38 callgsubr
          -3 93 35 80 hintmask 1111101010000000
          382 191 -92 callgsubr
          -289 66 -72 callgsubr
          132 20 -77 callsubr
          hintmask 1111110110000000
          6 callgsubr
          vhcurveto
          endchar
        </CharString>
        <CharString name="onesuperior">
          -142 -32 callgsubr
          hstem
          -23 -39 callsubr
          vstem
          93 257 -72 callgsubr
          endchar
        </CharString>
        <CharString name="ordfeminine">
          30 77 62 -62 83 -83 135 -123 -21 154 71 -39 39 hstemhm
          34 77 -77 190 -190 209 hintmask 1000100100000000
          326 157 rmoveto
          5 -4 2 -5 -5 -6 -2 -5 -5 vhcurveto
          -5 -7 -14 -13 -17 hhcurveto
          -23 -16 27 16 hvcurveto
          6 3 8 7 vvcurveto
          hintmask 0010101000000000
          5 -1 4 -8 vhcurveto
          hintmask 0100011000000000
          -22 4 -52 -48 hhcurveto
          -27 -14 14 25 32 17 23 25 hvcurveto
          hintmask 1000100010000000
          34 6 -32 18 hhcurveto
          14 18 19 17 15 -10 18 -40 2 hvcurveto
          -35 -1 -124 -61 -106 vvcurveto
          -28 20 -20 30 vhcurveto
          42 36 58 11 hhcurveto
          2 2 -1 -2 hvcurveto
          hintmask 0001101000000000
          -25 0 -39 39 54 56 76 13 vhcurveto
          endchar
        </CharString>
        <CharString name="ordmasculine">
          -14 264 67 hstem
          -5 65 104 66 vstem
          136 249 rmoveto
          40 19 -28 -27 -26 -18 -26 -35 -34 -17 28 28 26 15 25 30 hvcurveto
          23 51 rmoveto
          -72 -50 -79 -63 -41 22 -34 50 80 56 78 62 42 -25 35 -61 hvcurveto
          endchar
        </CharString>
        <CharString name="oslash">
          5 -85 -29 callsubr
          -39 -18 callsubr
          -54 callsubr
          19 9 9 -60 callsubr
          -9 26 -12 24 -20 14 10 25 8 18 3 6 -49 callsubr
          -11 -7 -13 0 vhcurveto
          -3 -4 -10 -22 -12 -28 rrcurveto
          1 -3 -4 0 -3 hhcurveto
          -29 -23 -19 -30 hvcurveto
          -4 vlineto
          -57 -59 -96 -55 -51 23 -27 30 -11 hvcurveto
          -10 -23 -8 -19 -5 -11 -63 callgsubr
          2 9 20 10 24 vhcurveto
          65 14 60 76 23 61 rrcurveto
          21 37 42 17 4 -2 3 -6 hvcurveto
          20 callsubr
          endchar
        </CharString>
        <CharString name="otilde">
          -16 callsubr
          45 5 callsubr
          1 101 hintmask 10011010
          -89 callgsubr
          hintmask 01001010
          -58 callgsubr
          hvcurveto
          hintmask 10100110
          3 callsubr
          -147 219 -79 callsubr
          hintmask 10101010
          -87 callsubr
          hintmask 10100110
          -4 callgsubr
          endchar
        </CharString>
        <CharString name="p">
          41 -244 -21 266 134 0 99 -99 183 hstemhm
          52 36 -19 211 -74 74 -74 158 hintmask 11001001
          -32 callsubr
          -148 -135 rmoveto
          -22 18 -49 41 vhcurveto
          -1 -28 0 -38 -23 vvcurveto
          -57 callsubr
          hintmask 10101010
          -13 callsubr
          18 55 19 vvcurveto
          hintmask 10010100
          40 callsubr
          -13 -71 4 callgsubr
          3 -3 6 6 9 3 9 7 vhcurveto
          -7 callsubr
          -28 -7 -82 -16 vvcurveto
          -43 -1 -25 -53 -23 vvcurveto
          endchar
        </CharString>
        <CharString name="paragraph">
          108 -368 -21 830 -20 hstemhm
          29 188 0 107 -94 40 -40 67 hintmask 11100100
          217 74 rmoveto
          286 -71 81 -37 -46 -34 -106 -70 -93 70 -98 118 vhcurveto
          -8 -351 rmoveto
          39 21 158 161 vvcurveto
          136 -15 139 -55 72 vhcurveto
          110 27 -80 -113 hvcurveto
          hintmask 11101000
          -112 -27 -143 -128 vvcurveto
          -47 0 -129 45 -4 vhcurveto
          hintmask 11010000
          6 -1 3 -4 -6 vvcurveto
          -24 -36 -26 -35 -34 -6 50 62 -4 vhcurveto
          endchar
        </CharString>
        <CharString name="parenleft">
          54 59 79 vstem
          439 800 rmoveto
          -1 57 -10 -38 24 hhcurveto
          22 14 23 24 24 -15 25 -36 -276 -178 -391 -300 -188 69 -152 158 78 27 34 25 14 -9 12 -14 hvcurveto
          -3 -18 -17 -2 -16 hhcurveto
          -141 -58 132 163 260 148 339 191 hvcurveto
          endchar
        </CharString>
        <CharString name="parenright">
          54 59 79 vstem
          105 803 rmoveto
          140 69 -181 -199 -243 -103 -271 -200 -16 -16 2 3 -17 hvcurveto
          -17 -14 -17 -19 -23 21 -26 66 221 126 298 276 237 -93 220 -207 -43 -22 -38 -28 -17 8 -13 16 23 -1 38 1 59 hvcurveto
          endchar
        </CharString>
        <CharString name="percent">
          120 -40 -29 callsubr
          48 -18 callsubr
          309 363 -94 callgsubr
        </CharString>
        <CharString name="period">
          -63 -22 37 callgsubr
          37 -93 callsubr
          endchar
        </CharString>
        <CharString name="periodcentered">
          -63 68 37 callgsubr
          127 -93 callsubr
          endchar
        </CharString>
        <CharString name="perthousand">
          286 -40 -29 callsubr
          48 -18 callsubr
          496 110 -93 callgsubr
          -204 210 -94 callgsubr
        </CharString>
        <CharString name="plus">
          17 92 -19 callgsubr
          272 113 27 callgsubr
          33 29 callsubr
          -17 -2 0 -1 2 -65 vhcurveto
          1 -58 -4 3 -1 -45 callsubr
          30 2 31 2 28 1 rrcurveto
          -2 -58 18 callgsubr
          30 -2 32 -1 28 rrcurveto
          42 hlineto
          -2 callgsubr
        </CharString>
        <CharString name="plusminus">
          17 -9 53 125 53 hstemhm
          24 248 hintmask 01100000
          272 170 27 callgsubr
          13 29 callsubr
          -24 vhcurveto
          -18 2 -18 -5 vvcurveto
          1 -58 -4 3 -1 -45 callsubr
          30 2 31 2 28 1 rrcurveto
          -8 -2 -15 -15 vvcurveto
          -23 4 -24 18 23 12 13 4 vhcurveto
          -3 30 -2 12 -1 28 rrcurveto
          42 hlineto
          -26 callsubr
          -158 vmoveto
          -70 callgsubr
          hintmask 10100000
          -2 callgsubr
        </CharString>
        <CharString name="q">
          89 -277 -21 273 96 -96 129 -48 201 hstemhm
          4 98 -98 225 -47 113 -113 206 hintmask 10011010
          216 257 rmoveto
          -115 -97 -139 -83 hvcurveto
          hintmask 11001010
          -35 18 -25 40 vhcurveto
          hintmask 10011010
          88 9 81 23 hhcurveto
          4 2 -11 -18 hvcurveto
          -37 -6 -65 -63 vvcurveto
          -82 10 -78 48 51 4 86 66 vhcurveto
          43 -29 74 -1 vvcurveto
          hintmask 11001001
          25 9 97 50 42 vvcurveto
          6 -4 7 -13 4 vhcurveto
          -13 -18 -13 -4 -11 hhcurveto
          hintmask 10101010
          -29 -7 33 -22 hhcurveto
          -15 -13 -15 -8 -9 hvcurveto
          -3 -4 -2 -1 -1 hhcurveto
          -2 -1 3 6 9 3 14 4 9 hvcurveto
          8 22 43 55 30 vvcurveto
          9 -3 8 -9 1 vhcurveto
          -47 -15 -94 -25 -4 hvcurveto
          -19 -4 -25 -25 -27 hhcurveto
          -33 -13 36 22 hvcurveto
          hintmask 10010100
          33 127 31 46 vvcurveto
          7 -6 2 -7 vhcurveto
          endchar
        </CharString>
        <CharString name="question">
          30 -46 141 310 165 -41 41 hstemhm
          -9 108 -24 48 -48 118 -13 120 hintmask 11000100
          64 24 rmoveto
          -39 29 -31 36 36 28 31 39 40 -28 40 callgsubr
          -40 vhcurveto
          hintmask 11010010
          236 446 rmoveto
          70 -69 30 -73 -81 -86 -37 -62 -35 23 -31 34 30 21 30 30 23 -8 6 -8 -27 -8 4 6 vhcurveto
          hintmask 10101010
          17 15 8 20 39 58 -30 -41 vhcurveto
          -62 -105 -95 -72 vvcurveto
          -62 63 -21 6 -1 vhcurveto
          9 13 7 6 3 -2 2 -6 2 hvcurveto
          -20 10 -15 22 23 59 177 55 136 vvcurveto
          endchar
        </CharString>
        <CharString name="questiondown">
          30 -351 41 -41 165 310 141 hstemhm
          -8 120 -13 118 -48 48 -24 108 hintmask 10101000
          228 195 rmoveto
          39 -29 31 -36 -36 -28 -31 -39 -40 28 -31 36 36 29 31 40 vhcurveto
          hintmask 01110010
          -236 -446 rmoveto
          -70 69 -30 73 81 86 37 62 35 -23 31 -34 -30 -21 -30 -30 -23 8 -6 8 27 8 -4 -6 vhcurveto
          hintmask 10110100
          -17 -15 -8 -20 -39 -58 30 41 vhcurveto
          62 105 95 72 vvcurveto
          62 -63 21 -6 1 vhcurveto
          -9 -13 -7 -6 -3 2 -2 6 -2 hvcurveto
          20 -10 15 -22 -23 -59 -177 -55 -136 vvcurveto
          endchar
        </CharString>
        <CharString name="quotedbl">
          19 30 callgsubr
          229 534 rmoveto
          -64 callsubr
          -104 hmoveto
          -64 callsubr
          endchar
        </CharString>
        <CharString name="quotedblbase">
          86 -105 17 callsubr
          47 -75 callsubr
        </CharString>
        <CharString name="quotedblleft">
          51 388 -21 223 -20 hstemhm
          44 52 -52 114 24 52 -52 114 hintmask 11100100
          182 417 rmoveto
          -6 callgsubr
          hintmask 11010100
          -51 callsubr
          -138 hmoveto
          -6 callgsubr
          hintmask 11011000
          -51 callsubr
          endchar
        </CharString>
        <CharString name="quotedblright">
          86 395 17 callsubr
          547 -75 callsubr
        </CharString>
        <CharString name="quoteleft">
          -87 388 -30 callgsubr
          vstemhm
          44 417 rmoveto
          -6 callgsubr
          hintmask 11100000
          -51 callsubr
          endchar
        </CharString>
        <CharString name="quoteright">
          -52 393 -6 callsubr
          545 -43 callgsubr
        </CharString>
        <CharString name="quotesinglbase">
          -52 -104 -6 callsubr
          48 -43 callgsubr
        </CharString>
        <CharString name="quotesingle">
          -85 30 callgsubr
          125 534 rmoveto
          -64 callsubr
          endchar
        </CharString>
        <CharString name="r">
          -59 -30 -21 145 129 -94 94 8 -20 hstemhm
          hintmask 10010000
          65 231 rmoveto
          -42 -57 -80 -13 hvcurveto
          hintmask 10100000
          -7 8 -2 10 vhcurveto
          10 12 2 5 hhcurveto
          25 9 -13 -18 hvcurveto
          -28 -121 rlineto
          -20 25 -10 27 32 36 14 29 vhcurveto
          20 -33 59 33 vvcurveto
          14 6 10 17 vhcurveto
          hintmask 11000000
          15 4 -34 30 hhcurveto
          31 68 71 16 7 -3 6 -8 -7 -7 -3 0 hvcurveto
          13 -14 -8 19 -29 -46 -36 -65 -8 hhcurveto
          -4 -3 4 0 0 -3 30 -2 15 hvcurveto
          hintmask 10010000
          14 -2 -14 10 -16 hhcurveto
          endchar
        </CharString>
        <CharString name="registered">
          -3 callsubr
          232 26 15 callgsubr
          -61 -35 -70 -53 -46 hvcurveto
          -35 15 -33 46 10 vvcurveto
          2 1 1 1 1 vhcurveto
          59 4 27 41 44 vvcurveto
          49 -35 52 -63 -73 -32 -73 -74 -76 33 -77 52 -4 vhcurveto
          4 2 3 3 hvcurveto
          12 -5 51 17 vvcurveto
          33 0 28 3 34 vhcurveto
          1 16 2 12 1 3 rrcurveto
          2 -2 0 -2 -3 -3 -1 -2 -2 vhcurveto
          -7 -15 -1 -39 -91 vvcurveto
          -2 -1 -1 -1 vhcurveto
          -27 28 -14 44 41 vvcurveto
          44 16 41 35 11 vhcurveto
          48 24 -58 -40 -25 -11 -21 -21 hvcurveto
          -16 2 -5 10 -4 1 rrcurveto
          -3 -1 -3 -3 -43 11 -61 35 -23 hvcurveto
          -11 -24 -25 -7 -26 hhcurveto
          -35 callsubr
        </CharString>
        <CharString name="ring">
          -62 251 48 43 44 hstem
          90 24 58 31 vstem
          74 354 -71 callsubr
          endchar
        </CharString>
        <CharString name="s">
          42 -44 90 -90 108 194 -20 hstemhm
          33 240 -69 69 hintmask 01101000
          264 64 -52 callgsubr
          hvcurveto
          hintmask 10110000
          33 callgsubr
          vhcurveto
          -12 callgsubr
          80 114 -8 callsubr
          hintmask 01110000
          0 -41 -47 -31 vhcurveto
          endchar
        </CharString>
        <CharString name="scaron">
          42 22 callgsubr
          45 -2 callsubr
          76 410 -99 callgsubr
          188 -346 -52 callgsubr
          33 callgsubr
          hvcurveto
          -12 callgsubr
          74 120 -8 callsubr
          0 -41 -47 -31 vhcurveto
          endchar
        </CharString>
        <CharString name="section">
          29 -93 70 291 99 -58 58 hstemhm
          70 196 -156 196 -196 225 -146 77 -37 77 hintmask 11000001
          196 103 rmoveto
          -20 12 -21 15 -7 13 rrcurveto
          11 5 9 6 7 vhcurveto
          33 -19 37 -12 -22 vvcurveto
          -8 -6 -11 -13 -3 vhcurveto
          -4 3 -5 2 -5 3 rrcurveto
          hintmask 11010000
          -126 12 rmoveto
          hintmask 11000010
          -22 callsubr
          64 108 54 60 17 -6 14 -10 12 vhcurveto
          hintmask 10101000
          32 20 24 27 28 -31 callgsubr
          hintmask 11000100
          38 callgsubr
          41 -32 1 -19 -63 -111 -76 -58 -15 6 -11 8 -10 vhcurveto
          hintmask 11010000
          -31 -24 -23 -31 -27 vvcurveto
          endchar
        </CharString>
        <CharString name="semicolon">
          -52 -104 -21 223 58 0 16 callsubr
          50 108 -52 52 hintmask 10110000
          50 215 -93 callsubr
          108 -167 rmoveto
          hintmask 11001000
          -66 callsubr
          -59 callgsubr
          2 3 -4 5 hhcurveto
          -14 callsubr
          hvcurveto
          39 callsubr
        </CharString>
        <CharString name="seven">
          -12 194 47 hstem
          132 90 vstem
          307 279 rmoveto
          7 -2 4 -10 -6 -11 -1 -6 -13 vhcurveto
          -10 -24 -30 -2 -29 -44 -43 6 -20 hhcurveto
          -37 -17 -35 -26 -15 6 -12 11 hvcurveto
          22 8 22 57 hhcurveto
          13 16 -1 -3 20 hvcurveto
          -25 -60 -23 -109 -37 vvcurveto
          -29 18 -12 21 32 41 28 41 vhcurveto
          23 -13 14 34 89 82 83 7 vvcurveto
          endchar
        </CharString>
        <CharString name="six">
          39 -14 37 163 56 hstem
          31 76 115 90 vstem
          225 83 rmoveto
          -28 -29 -24 -29 -27 -26 21 57 -4 vhcurveto
          10 21 19 5 16 hhcurveto
          36 23 -21 -20 hvcurveto
          -20 81 rmoveto
          -28 -33 -9 -23 -34 hvcurveto
          56 2 29 56 55 hhcurveto
          29 callgsubr
          24 callgsubr
          -113 -94 -122 -85 -87 60 -33 64 77 84 48 59 48 -41 46 -63 vhcurveto
          endchar
        </CharString>
        <CharString name="slash">
          -42 -40 -29 callsubr
          -74 -18 callsubr
          340 731 -26 callgsubr
          -94 -199 -148 -395 -84 -173 -63 callgsubr
          45 105 198 500 65 137 -16 callgsubr
        </CharString>
        <CharString name="space">
          -41 endchar
        </CharString>
        <CharString name="sterling">
          33 -37 49 0 59 -59 148 45 99 hstemhm
          60 31 -31 134 hintmask 01011000
          35 117 rmoveto
          -69 callgsubr
          8 6 9 5 9 5 rrcurveto
          2 -19 2 -15 -27 vvcurveto
          -16 -1 -14 -2 -12 vhcurveto
          -1 6 callsubr
          vvcurveto
          -5 6 -4 4 2 2 1 6 4 vhcurveto
          9 6 22 26 17 hhcurveto
          hintmask 10011000
          31 52 -49 38 hhcurveto
          25 49 29 16 4 -5 6 -3 hvcurveto
          -9 3 -6 -22 hhcurveto
          hintmask 01011000
          -41 -42 59 -39 hhcurveto
          -18 -14 -5 -9 -17 hvcurveto
          -1 -1 2 6 14 -2 4 -2 21 hvcurveto
          33 10 33 4 20 -20 callgsubr
          hintmask 00111000
          25 callgsubr
          -38 -31 -4 -9 -29 vhcurveto
          -2 21 -2 21 17 vvcurveto
          24 4 16 11 6 6 -2 -2 2 vhcurveto
          -5 -8 -1 -7 -5 vvcurveto
          -12 9 -5 8 vhcurveto
          hintmask 10010100
          23 40 25 32 41 -32 1 -19 -77 -14 -64 -49 -27 0 -20 1 -16 hvcurveto
          -6 -3 -6 -4 -6 -4 rrcurveto
          endchar
        </CharString>
        <CharString name="t">
          -37 -37 104 378 74 35 -20 hstem
          3 61 vstem
          -139 337 rmoveto
          0 -20 -5 -8 -12 vhcurveto
          -3 -4 -1 -4 -5 vvcurveto
          -11 7 -19 11 8 10 6 5 10 vhcurveto
          46 23 48 20 46 18 rrcurveto
          -10 -99 -2 -102 -21 vvcurveto
          -70 17 -94 84 -9 callsubr
          -110 1 -7 116 -2 84 15 22 13 43 7 47 rrcurveto
          41 119 95 24 4 26 -4 -9 10 hhcurveto
          11 42 19 12 24 hvcurveto
          10 5 4 6 7 vvcurveto
          28 -28 6 -19 -22 -28 -5 -5 -19 vhcurveto
          -52 -13 -84 -30 -82 -31 rrcurveto
          1 12 0 12 12 vvcurveto
          47 -8 36 -18 -30 -19 -69 -83 -11 vhcurveto
          -79 -31 -65 -27 -16 -7 rrcurveto
          endchar
        </CharString>
        <CharString name="thorn">
          41 -244 -21 400 99 190 -20 hstemhm
          -6 94 -36 36 118 74 -74 158 hintmask 11101010
          -32 callsubr
          -90 -295 rmoveto
          -57 callsubr
          hintmask 11110100
          -13 callsubr
          26 161 19 vvcurveto
          40 callsubr
          -13 -71 -3 callgsubr
          -7 callsubr
          -11 vlineto
          -17 -15 -188 -7 vvcurveto
          -9 -3 vlineto
          -40 -1 -25 -53 -23 vvcurveto
          hintmask 11101100
          -33 28 -37 30 -1 vhcurveto
          endchar
        </CharString>
        <CharString name="three">
          39 4 61 146 43 hstem
          169 88 vstem
          129 140 rmoveto
          -31 75 28 -74 vvcurveto
          -24 -46 -19 -37 -18 -3 10 14 -1 vhcurveto
          13 -3 11 -24 vhcurveto
          0 -72 -3 -53 vvcurveto
          -33 10 37 -14 44 hhcurveto
          88 117 54 59 hvcurveto
          75 -133 -19 9 vvcurveto
          60 35 59 45 36 vvcurveto
          23 -26 17 -63 -70 -95 -52 -51 -13 8 -10 15 vhcurveto
          48 -3 46 43 hhcurveto
          18 2 -17 0 hvcurveto
          -38 -30 -16 -8 vvcurveto
          endchar
        </CharString>
        <CharString name="threequarters">
          207 -19 callsubr
          -31 36 -19 61 65 51 30 43 hstemhm
          -234 88 220 -38 callgsubr
          -3 93 35 80 hintmask 1101011110101000
          7 callsubr
          vhcurveto
          hintmask 1110011110101000
          8 -2 7 -15 vhcurveto
          hintmask 1100111110101000
          -57 callgsubr
          356 21 -92 callgsubr
          -157 86 -77 callsubr
          hintmask 1101011111011000
          6 callgsubr
          vhcurveto
          endchar
        </CharString>
        <CharString name="threesuperior">
          -64 -32 callgsubr
          hstem
          -23 -39 callsubr
          vstem
          7 callsubr
          8 -2 7 -15 vhcurveto
          -57 callgsubr
          endchar
        </CharString>
        <CharString name="tilde">
          54 297 5 callsubr
          hintmask 01000000
          137 382 -79 callsubr
          hintmask 10000000
          -87 callsubr
          hintmask 01000000
          -4 callgsubr
          endchar
        </CharString>
        <CharString name="trademark">
          129 245 25 -25 180 -180 195 -195 214 -195 -21 hstemhm
          57 26 72 23 -23 84 0 46 0 23 hintmask 0000110101000000
          89 243 rmoveto
          -24 -8 25 30 39 13 49 9 20 hvcurveto
          1 1 4 2 3 1 rrcurveto
          2 1 -1 -1 hvcurveto
          -6 -31 -1 -20 -15 vvcurveto
          -45 12 -29 22 2 3 0 -3 -11 -20 -11 -13 vhcurveto
          61 7 rmoveto
          -1 0 -3 3 4 14 9 4 vhcurveto
          38 4 23 75 8 17 -5 -123 7 hhcurveto
          4 13 9 5 1 hvcurveto
          -6 -2 43 146 6 hhcurveto
          1 1 0 -2 hvcurveto
          -19 -7 -34 -32 vvcurveto
          hintmask 1000010101000000
          -37 10 -34 44 18 22 17 8 2 -2 2 -3 vhcurveto
          -2 -2 -4 -7 hhcurveto
          -48 -7 96 37 hvcurveto
          15 2 9 5 vvcurveto
          hintmask 0010010101000000
          4 -5 4 -7 -19 -42 -148 8 1 vhcurveto
          1 7 0 14 15 vvcurveto
          hintmask 0100011010000000
          38 -3 51 -14 -18 -22 -79 -57 -18 vhcurveto
          4 24 10 47 34 vvcurveto
          26 -5 22 -6 5 vhcurveto
          1 2 0 3 2 vvcurveto
          hintmask 0001010101000000
          3 -4 1 -1 1 vhcurveto
          -60 -81 -32 -10 -13 hvcurveto
          -2 -1 -6 -18 -8 vvcurveto
          -2 0 -3 2 1 0 1 1 2 vhcurveto
          29 21 82 19 32 4 rrcurveto
          -1 vlineto
          2 -8 4 -20 -46 vvcurveto
          -26 -1 -35 -4 -45 vhcurveto
          endchar
        </CharString>
        <CharString name="two">
          -6 15 58 151 51 hstem
          36 189 vstem
          106 78 rmoveto
          106 72 12 58 38 vvcurveto
          30 -21 23 -32 -48 -109 -53 -45 -6 4 -5 9 vhcurveto
          9 26 12 10 hhcurveto
          23 15 -22 -20 -48 -80 -80 -25 -25 hvcurveto
          -3 -4 -4 -7 -7 vvcurveto
          -6 4 -6 6 vhcurveto
          21 48 32 43 41 19 -30 40 hhcurveto
          38 6 32 51 30 vvcurveto
          8 -3 3 -5 vhcurveto
          -13 -27 -21 -22 -9 -70 22 -35 hhcurveto
          endchar
        </CharString>
        <CharString name="twosuperior">
          -75 -32 callgsubr
          hstem
          -31 -39 callsubr
          vstem
          90 137 -72 callsubr
          endchar
        </CharString>
        <CharString name="u">
          31 callgsubr
          244 -20 hstemhm
          hintmask 10010000
          483 97 -102 callsubr
          hintmask 01000000
          -79 callgsubr
          hintmask 00110000
          -49 callgsubr
        </CharString>
        <CharString name="uacute">
          172 49 -10 callsubr
          311 353 -104 callsubr
          172 -256 -101 callsubr
        </CharString>
        <CharString name="ucircumflex">
          172 241 50 hstem
          56 -2 callsubr
          87 271 -107 callsubr
          396 -174 -101 callsubr
        </CharString>
        <CharString name="udieresis">
          31 callgsubr
          306 16 callsubr
          50 -5 callsubr
          hintmask 10011100
          190 333 rmoveto
          -105 callgsubr
          433 -236 -102 callsubr
          hintmask 01011100
          -79 callgsubr
          hintmask 00111100
          -49 callgsubr
        </CharString>
        <CharString name="ugrave">
          172 2 -10 callsubr
          60 363 -103 callsubr
          423 -266 -101 callsubr
        </CharString>
        <CharString name="underscore">
          26 callsubr
          -48 -36 callgsubr
        </CharString>
        <CharString name="v">
          -1 -34 123 -123 229 -229 250 67 -20 hstemhm
          129 79 -79 187 hintmask 01010100
          6 150 rmoveto
          -4 -6 -1 -5 -4 vvcurveto
          -16 23 -2 0 vhcurveto
          9 -1 0 -8 -7 vvcurveto
          -30 4 -105 79 78 11 94 41 12 vhcurveto
          2 6 6 4 0 vvcurveto
          44 14 47 36 29 vvcurveto
          6 -2 6 -8 2 vhcurveto
          -7 -6 -9 0 hvcurveto
          hintmask 10011000
          -53 -32 35 23 6 -6 24 -12 -14 -47 -61 -32 -28 45 -38 15 -10 hvcurveto
          -21 -11 -4 -17 vhcurveto
          hintmask 00111000
          -73 26 127 -52 hhcurveto
          -16 -9 -12 -7 -4 hvcurveto
          -3 -7 -15 -29 -9 -11 rrcurveto
          endchar
        </CharString>
        <CharString name="w">
          175 -49 139 -139 245 -229 123 198 -20 hstemhm
          1 84 245 180 hintmask 00111100
          77 237 rmoveto
          -38 -38 -113 -68 -48 12 -41 48 45 39 31 36 27 hvcurveto
          2 1 3 1 2 hhcurveto
          3 2 -2 -3 1 hvcurveto
          hintmask 01011100
          -37 5 -44 50 69 62 118 26 17 vhcurveto
          -1 3 3 0 4 hhcurveto
          36 77 39 57 11 -4 4 -5 hvcurveto
          -8 -13 -9 -4 -61 16 92 -37 hhcurveto
          -27 -37 -54 -53 hvcurveto
          -43 31 -18 -7 vvcurveto
          -15 -21 -19 -29 -42 -13 33 22 vhcurveto
          1 12 2 10 6 vvcurveto
          5 -1 3 -5 1 vhcurveto
          hintmask 10011100
          -1 -35 9 -80 -80 hhcurveto
          -11 -51 15 75 hvcurveto
          15 4 12 12 vvcurveto
          10 -3 8 -9 vhcurveto
          endchar
        </CharString>
        <CharString name="x">
          30 -24 85 -77 -21 305 -20 hstemhm
          hintmask 01100000
          3 -11 rmoveto
          -2 -3 -1 -3 -4 vvcurveto
          -7 6 -9 9 vhcurveto
          hintmask 10100000
          9 6 9 4 4 hvcurveto
          17 24 19 22 19 21 rrcurveto
          -39 34 43 -28 40 hhcurveto
          69 52 72 9 5 -5 5 -5 -2 6 callsubr
          hvcurveto
          -3 -5 -7 -1 -6 hhcurveto
          -40 -38 34 38 -29 hvcurveto
          37 30 28 20 6 4 rrcurveto
          8 6 4 6 5 vvcurveto
          7 -6 4 -7 -5 -6 -2 -4 -6 vhcurveto
          -26 -18 -22 -17 -22 -17 -26 39 -18 39 -3 8 -6 14 -2 9 -12 2 rrcurveto
          -22 -54 -52 -23 -41 17 -45 27 -39 hvcurveto
          -40 -41 -23 -30 -4 -8 rrcurveto
          endchar
        </CharString>
        <CharString name="y">
          37 callsubr
          154 -20 hstem
          0 67 45 77 64 28 vstem
          -99 callsubr
          endchar
        </CharString>
        <CharString name="yacute">
          61 8 -10 callsubr
          -23 callsubr
          -110 0 -150 -23 vhcurveto
          41 673 -104 callsubr
          93 -264 -37 callsubr
          0 19 -14 -12 -28 -22 -74 -3 vhcurveto
          -88 callsubr
          104 145 48 -1 53 -2 55 -61 callgsubr
          endchar
        </CharString>
        <CharString name="ydieresis">
          37 callsubr
          218 16 callsubr
          0 67 -23 108 -40 77 -5 97 -28 28 hintmask 11110101
          -99 callsubr
          hintmask 11101010
          -179 244 rmoveto
          -105 callgsubr
          endchar
        </CharString>
        <CharString name="yen">
          -5 -23 -21 382 -20 hstemhm
          32 63 24 62 -36 121 hintmask 11110000
          73 69 rmoveto
          -69 callgsubr
          15 11 18 9 18 6 rrcurveto
          -47 0 -46 15 14 31 24 11 13 0 28 2 34 vhcurveto
          3 17 14 2 12 hhcurveto
          10 6 26 8 25 callgsubr
          -17 -15 -1 -1 -15 hvcurveto
          6 66 12 69 26 9 rrcurveto
          -2 1 2 -2 7 hhcurveto
          hintmask 11101000
          12 16 30 15 25 -12 12 -16 -35 -55 -57 -118 -3 hvcurveto
          -18 30 -32 62 67 vvcurveto
          13 -4 9 -9 -29 -21 -65 0 vhcurveto
          1 -55 41 -86 29 -45 36 callsubr
        </CharString>
        <CharString name="z">
          9 -399 99 310 240 -91 91 hstemhm
          1 87 -58 175 -95 95 -29 64 hintmask 11010010
          -17 callsubr
          hintmask 10101000
          -146 330 25 callsubr
          hintmask 11010100
          -48 callsubr
          vhcurveto
          hintmask 11010010
          28 callgsubr
          hvcurveto
          -48 callgsubr
          hintmask 11001000
          8 callsubr
        </CharString>
        <CharString name="zcaron">
          9 22 callgsubr
          28 -2 callsubr
          -17 callsubr
          -117 572 -99 callgsubr
          -29 -242 25 callsubr
          -48 callsubr
          28 callgsubr
          vhcurveto
          -48 callgsubr
          8 callsubr
        </CharString>
        <CharString name="zero">
          29 192 67 hstem
          16 65 104 66 vstem
          152 204 rmoveto
          60 28 -41 -40 -39 -27 -38 -51 -51 -25 42 41 38 22 37 44 hvcurveto
          33 76 rmoveto
          -106 -72 -117 -93 -61 31 -50 74 118 83 115 92 62 -38 52 -90 hvcurveto
          endchar
        </CharString>
      <CharString index="0">
        -33 24 -26 30 -106 callsubr
        vhcurveto
        return
      </CharString>
      <CharString index="1">
        rmoveto
        -73 53 -98 100 26 27 6 11 26 vhcurveto
        -57 -43 -54 -40 -62 hhcurveto
        -135 -34 137 92 -63 callsubr
        hvcurveto
        -33 callsubr
        221 -80 -39 callgsubr
        71 32 -74 -71 -62 -22 -91 -40 -81 hvcurveto
        -6 -19 -21 -4 -23 hhcurveto
        114 520 rmoveto
        -66 callgsubr
        125 120 125 154 80 vhcurveto
        -84 callgsubr
        69 -34 71 -73 vhcurveto
        26 13 21 34 21 vvcurveto
        endchar
      </CharString>
      <CharString index="2">
        -107 callgsubr
        -140 hmoveto
        -107 callgsubr
        return
      </CharString>
      <CharString index="3">
        -1 29 -7 257 27 vvcurveto
        14 -1 16 -3 5 vhcurveto
        1 -1 -2 1 -2 hhcurveto
        -9 -16 -7 -6 -9 hvcurveto
        -115 67 rmoveto
        -5 -3 -5 -3 -1 -5 -17 -101 rcurveline
        -5 2 -5 6 5 9 4 11 14 vhcurveto
        37 30 188 82 18 9 rrcurveto
        12 6 2 5 6 vvcurveto
        23 -17 31 -5 13 vhcurveto
        5 -2 -5 2 -6 hhcurveto
        -40 -169 -93 -12 -21 hvcurveto
        endchar
      </CharString>
      <CharString index="4">
        -10 3 -4 6 -33 callgsubr
        vhcurveto
        -104 callgsubr
      </CharString>
      <CharString index="5">
        -83 callgsubr
        -60 callgsubr
        -94 callsubr
        -74 callsubr
      </CharString>
      <CharString index="6">
        -53 callgsubr
        -83 -92 -137 -98 -96 callgsubr
        endchar
      </CharString>
      <CharString index="7">
        rmoveto
        29 -23 34 -62 -59 callsubr
        vhcurveto
        -89 callsubr
        return
      </CharString>
      <CharString index="8">
        rmoveto
        -30 -19 -7 -11 -7 9 -7 20 -7 hvcurveto
        -26 72 -14 -55 45 hhcurveto
        45 -14 55 26 72 hvcurveto
        20 7 9 7 7 vvcurveto
        11 -19 7 -30 -16 -29 -13 -33 -38 vhcurveto
        33 -38 -29 13 -16 hhcurveto
        return
      </CharString>
      <CharString index="9">
        rmoveto
        -32 -25 16 24 -16 hvcurveto
        -101 callgsubr
      </CharString>
      <CharString index="10">
        rmoveto
        130 109 216 151 24 vhcurveto
        -1 1 0 2 2 vvcurveto
        34 -14 10 -37 -134 -170 -261 -180 -92 34 -137 135 62 54 40 57 43 vhcurveto
        -11 -26 -27 -6 -26 hhcurveto
        -100 -53 98 73 hvcurveto
        221 -80 rmoveto
        23 21 4 6 19 hvcurveto
        40 81 22 91 62 vvcurveto
        71 -32 74 -71 -88 -78 -120 -104 -119 93 -46 51 vhcurveto
        114 520 rmoveto
        -21 -21 -34 -26 -13 vhcurveto
        73 34 -71 -69 -84 -23 -99 -39 -94 hvcurveto
        41 28 22 34 5 5 rrcurveto
        2 2 1 1 2 hhcurveto
        6 6 -7 -7 hvcurveto
        -1 -19 -49 -63 -68 -47 rrcurveto
        -154 -80 -120 -125 -125 hhcurveto
        -111 -60 101 131 333 300 329 174 24 33 -21 -36 hvcurveto
        endchar
      </CharString>
      <CharString index="11">
        -54 28 -43 74 85 68 77 57 35 vhcurveto
        -86 callgsubr
        return
      </CharString>
      <CharString index="12">
        rmoveto
        -55 -52 -25 -14 -7 -7 3 11 -1 vhcurveto
        33 -3 -49 33 -40 hhcurveto
        -169 -172 -274 -143 -75 34 -71 78 74 66 78 77 51 hvcurveto
        60 91 48 151 8 16 rrcurveto
        13 5 11 8 10 hhcurveto
        12 8 -9 -10 -5 -1 -5 -2 -6 hvcurveto
        -24 -88 -5 -55 -63 vvcurveto
        -119 46 -102 75 24 20 13 5 6 vhcurveto
        4 5 5 2 4 hhcurveto
        6 6 -4 -7 -76 -112 -74 -82 -85 -18 76 66 hvcurveto
        95 29 85 20 vvcurveto
        3 -1 1 -2 -3 -4 -4 -5 -3 vhcurveto
        -192 -77 -151 -143 -112 hhcurveto
        -46 -45 18 46 -26 hvcurveto
        -19 33 -6 38 35 vvcurveto
        252 299 367 263 62 23 -34 -29 vhcurveto
        endchar
      </CharString>
      <CharString index="13">
        -64 callgsubr
        21 -253 -93 callgsubr
        -233 87 -93 callgsubr
        endchar
      </CharString>
      <CharString index="14">
        rmoveto
        -22 -10 -18 -19 -20 12 -21 25 26 13 19 19 20 -14 20 -30 hvcurveto
        17 43 rmoveto
        48 20 -27 -33 -48 -44 -60 -62 -39 -16 26 32 49 38 61 55 hvcurveto
        return
      </CharString>
      <CharString index="15">
        rmoveto
        -63 -8 -82 0 hvcurveto
        -13 -8 8 33 hvcurveto
        12 5 12 8 vvcurveto
        6 -3 4 -9 -8 -56 -14 -61 -14 11 -36 31 vhcurveto
        21 24 31 4 hhcurveto
        4 1 -4 -5 hvcurveto
        -14 vlineto
        -28 1 -49 1 -1 vhcurveto
        -5 4 6 -3 6 hhcurveto
        18 29 17 20 1 hvcurveto
        11 -6 10 40 59 19 28 11 vvcurveto
        4 -3 2 -9 vhcurveto
        return
      </CharString>
      <CharString index="16">
        rmoveto
        30 -25 26 -44 -98 -397 -164 -169 vhcurveto
        -100 160 6 -63 -44 -165 -84 -127 -77 callgsubr
        -67 callsubr
        return
      </CharString>
      <CharString index="17">
        73 -163 16 75 vvcurveto
        56 3 171 100 87 hhcurveto
        17 38 -8 -27 hvcurveto
        -7 41 callsubr
        vvcurveto
        -8 4 1 9 -1 vhcurveto
        20 108 44 54 return
      </CharString>
      <CharString index="18">
        -54 callsubr
        21 9 7 -60 callsubr
        44 -14 -24 36 -55 hhcurveto
        -29 -23 -19 -30 hvcurveto
        return
      </CharString>
      <CharString index="19">
        -5 -6 -20 -13 -24 hhcurveto
        -75 -46 102 119 63 5 55 24 88 hvcurveto
        2 6 1 5 5 vvcurveto
        10 -8 9 -12 -10 -11 -8 -13 -5 vhcurveto
        return
      </CharString>
      <CharString index="20">
        203 rmoveto
        -62 callsubr
        -58 callsubr
        return
      </CharString>
      <CharString index="21">
        3 6 1 -15 callsubr
        -3 3 -5 -6 -9 -5 -10 -9 vhcurveto
        -27 -22 -22 -23 -41 hhcurveto
        return
      </CharString>
      <CharString index="22">
        7 -4 3 -5 -22 -14 -16 -5 -3 vhcurveto
        -65 -104 -66 -235 -179 vvcurveto
        -121 30 -119 123 96 81 64 91 64 vhcurveto
        return
      </CharString>
      <CharString index="23">
        68 47 49 63 1 19 rrcurveto
        7 -6 7 -6 6 callsubr
        -2 vhcurveto
        -5 -5 -22 -34 -41 -28 rrcurveto
        39 94 23 99 84 vvcurveto
        return
      </CharString>
      <CharString index="24">
        rmoveto
        2 6 1 5 4 vvcurveto
        -85 callgsubr
        return
      </CharString>
      <CharString index="25">
        vhcurveto
        352 -503 rmoveto
        62 -7 64 -11 63 vhcurveto
        40 156 80 218 66 76 rrcurveto
        3 4 1 3 3 vvcurveto
        6 -7 3 -5 vhcurveto
        -51 -6 -15 -22 -4 -8 -79 -152 -22 -101 -25 -93 rrcurveto
        213 -54 -106 179 -98 hhcurveto
        -86 -94 -89 -38 -28 hvcurveto
        0 10 -24 9 -5 vhcurveto
        -1 1 1 0 1 hhcurveto
        8 8 16 11 10 hvcurveto
        28 19 22 10 21 hhcurveto
        165 136 -419 -67 hvcurveto
        -14 -11 -38 -54 vvcurveto
        -56 9 -59 37 44 12 101 30 vhcurveto
        return
      </CharString>
      <CharString index="26">
        -76 callsubr
        -67 callgsubr
      </CharString>
      <CharString index="27">
        383 53 -65 callgsubr
        return
      </CharString>
      <CharString index="28">
        -1 12 -9 16 -14 1 rrcurveto
        -29 -33 -107 -50 -39 29 -33 44 hvcurveto
        83 49 97 9 hhcurveto
        3 1 -4 -5 hvcurveto
        return
      </CharString>
      <CharString index="29">
        -47 -1 -165 -82 -141 vvcurveto
        -37 27 -27 40 vhcurveto
        55 48 78 15 hhcurveto
        return
      </CharString>
      <CharString index="30">
        vvcurveto
        -70 55 -36 63 -45 callgsubr
        vhcurveto
        -46 callsubr
        return
      </CharString>
      <CharString index="31">
        -70 callsubr
        85 32 callsubr
        return
      </CharString>
      <CharString index="32">
        vvcurveto
        -39 -2 -35 -7 -27 vhcurveto
        -1 -5 -1 -4 -4 vvcurveto
        -11 14 -11 10 5 7 4 12 8 vhcurveto
        23 16 52 63 42 75 128 -120 92 hhcurveto
        60 122 72 38 hvcurveto
        hintmask 01010101
        9 -14 17 -8 vhcurveto
        hintmask 10110011
        -22 8 -36 -54 -102 -100 131 -96 hhcurveto
        -66 -104 -110 -15 -12 hvcurveto
        -3 -3 -4 -6 -3 hhcurveto
        -3 -2 5 14 hvcurveto
        hintmask 10101101
        return
      </CharString>
      <CharString index="33">
        -41 callsubr
        -515 5 -84 callsubr
        return
      </CharString>
      <CharString index="34">
        -53 callsubr
        15 12 11 6 vhcurveto
        return
      </CharString>
      <CharString index="35">
        rmoveto
        -3 -80 -16 -11 hvcurveto
        -17 37 11 -45 -15 -9 -56 -10 vvcurveto
        -28 14 -11 15 17 27 14 18 vhcurveto
        -5 23 -2 19 18 40 9 29 18 vvcurveto
        12 -5 7 -15 vhcurveto
        return
      </CharString>
      <CharString index="36">
        -1 -37 -9 -102 -72 vvcurveto
        -18 1 -16 1 -13 vhcurveto
        -11 1 11 -3 8 hhcurveto
        19 callgsubr
        hvcurveto
        1 22 rlineto
        47 1 82 59 51 vvcurveto
        5 -3 2 -5 vhcurveto
        -19 3 -18 -48 hhcurveto
        -24 -15 6 7 -12 hvcurveto
        1 7 rlineto
        17 0 24 1 27 vhcurveto
        18 callsubr
        50 -14 34 -38 vhcurveto
        return
      </CharString>
      <CharString index="37">
        9 callsubr
        -123 -22 -76 callgsubr
        return
      </CharString>
      <CharString index="38">
        -4 -2 -10 -28 -11 vvcurveto
        -5 3 -1 1 1 3 0 1 1 vhcurveto
        return
      </CharString>
      <CharString index="39">
        -44 callgsubr
        10 callgsubr
        -62 callgsubr
        -100 callsubr
        -34 1 -51 51 return
      </CharString>
      <CharString index="40">
        40 49 -33 -33 3 hvcurveto
        -11 1 7 -3 7 hhcurveto
        14 52 25 55 hvcurveto
        endchar
      </CharString>
      <CharString index="41">
        36 -33 21 -24 -30 callsubr
        -131 60 -101 111 return
      </CharString>
      <CharString index="42">
        rmoveto
        4 6 2 -15 callsubr
        -5 3 -7 -7 -9 -3 -6 -6 vhcurveto
        -6 -9 -18 -18 -23 hhcurveto
        -44 callgsubr
        return
      </CharString>
      <CharString index="43">
        -26 callgsubr
        -7 -11 -63 -145 -8 -22 -6 -13 -70 -169 -19 -39 -63 callgsubr
        3 7 50 125 8 20 9 21 76 182 9 19 -47 callsubr
        return
      </CharString>
      <CharString index="44">
        rrcurveto
        -1 -3 -1 -73 callgsubr
        return
      </CharString>
      <CharString index="45">
        -29 5 -69 -64 hhcurveto
        -38 callsubr
        hvcurveto
        return
      </CharString>
      <CharString index="46">
        vhcurveto
        10 11 11 12 12 12 25 26 23 25 23 19 rrcurveto
        6 5 3 6 4 vvcurveto
        4 -2 3 -5 -5 -7 -3 -7 -9 vhcurveto
        return
      </CharString>
      <CharString index="47">
        -119 35 69 -64 61 hhcurveto
        107 78 79 30 10 -9 14 -10 hvcurveto
        return
      </CharString>
      <CharString index="48">
        -58 62 36 -48 -43 -30 -21 -14 vvcurveto
        -5 return
      </CharString>
      <CharString index="49">
        -4 vlineto
        -57 -59 -96 -55 -67 40 -27 44 73 71 87 67 25 hvcurveto
        21 37 42 17 return
      </CharString>
      <CharString index="50">
        0 -43 -5 -32 vvcurveto
        -20 6 22 -8 27 hhcurveto
        53 78 32 36 hvcurveto
        45 -80 -12 6 vvcurveto
        36 21 35 27 21 vvcurveto
        14 -23 10 -38 -42 -57 -31 -31 -7 5 -6 9 vhcurveto
        29 -2 27 26 hhcurveto
        10 2 -10 0 hvcurveto
        -23 -18 -9 -5 vvcurveto
        return
      </CharString>
      <CharString index="51">
        -12 23 22 -8 21 hhcurveto
        79 86 94 31 8 -6 6 -8 hvcurveto
        -15 -19 -25 -20 hhcurveto
        -25 -24 8 13 -23 hvcurveto
        41 70 24 73 58 vvcurveto
        262 -304 216 -163 -126 -130 -162 -45 -25 vhcurveto
        0 -1 -3 -4 vvcurveto
        return
      </CharString>
      <CharString index="52">
        50 -14 34 -38 -83 -11 -294 -232 -4 vhcurveto
        -69 callsubr
        33 callsubr
        -46 -7 -147 -65 vvcurveto
        return
      </CharString>
      <CharString index="53">
        -16 4 -209 2 -30 vhcurveto
        1 -18 8 -238 -58 vvcurveto
        return
      </CharString>
      <CharString index="54">
        79 86 24 41 47 vvcurveto
        21 -18 5 -14 return
      </CharString>
      <CharString index="55">
        rmoveto
        -1 -1 2 3 hvcurveto
        5 11 30 40 vvcurveto
        54 -65 60 -35 -20 -67 -82 -49 -40 vhcurveto
        -13 15 0 0 6 4 6 3 3 1 callgsubr
        return
      </CharString>
      <CharString index="56">
        -60 -33 51 60 75 29 73 22 hvcurveto
        6 -1 2 -9 -10 vvcurveto
        -46 18 -89 80 27 27 13 17 21 vhcurveto
        return
      </CharString>
      <CharString index="57">
        -132 -115 100 -24 hhcurveto
        -3 6 callsubr
        hvcurveto
        -21 -12 -61 -48 -23 vvcurveto
        -74 75 -28 100 175 253 84 71 75 vhcurveto
        7 4 6 5 7 vvcurveto
        6 -7 11 -5 -2 -3 -1 -3 -5 vhcurveto
        return
      </CharString>
      <CharString index="58">
        -56 2 24 -41 52 hhcurveto
        70 88 92 37 20 hvcurveto
        endchar
      </CharString>
      <CharString index="59">
        33 24 21 15 26 15 2 6 rlinecurve
        7 -5 7 -8 -3 -4 -2 -2 -4 vhcurveto
        -18 -11 -23 -15 -25 -19 -13 31 -23 26 -30 7 rrcurveto
        -6 -8 3 5 1 0 2 2 2 hvcurveto
        return
      </CharString>
      <CharString index="60">
        -24 callsubr
        -51 callgsubr
        endchar
      </CharString>
      <CharString index="61">
        -24 hvcurveto
        73 685 rmoveto
        -6 -3 -1 -8 -9 vvcurveto
        return
      </CharString>
      <CharString index="62">
        171 205 199 51 6 -2 5 -3 4 return
      </CharString>
      <CharString index="63">
        -31 -21 36 21 hvcurveto
        8 4 11 9 vvcurveto
        return
      </CharString>
      <CharString index="64">
        rmoveto
        -66 callsubr
        hintmask 11100000
        -85 callsubr
        endchar
      </CharString>
      <CharString index="65">
        9 callgsubr
        -78 callsubr
      </CharString>
      <CharString index="66">
        17 99 -19 callgsubr
        272 120 rmoveto
        -70 callgsubr
        return
      </CharString>
      <CharString index="67">
        140 hmoveto
        -107 callgsubr
        return
      </CharString>
      <CharString index="68">
        rmoveto
        -51 -93 46 119 104 78 120 88 return
      </CharString>
      <CharString index="69">
        -42 callsubr
        -73 189 return
      </CharString>
      <CharString index="70">
        -34 -9 -37 -8 hvcurveto
        -8 2 -9 -12 vvcurveto
        -21 -4 -30 -34 -43 vhcurveto
        -8 -9 -4 -8 -7 vvcurveto
        -6 4 -8 7 11 111 87 70 10 -10 38 -32 1 vhcurveto
        return
      </CharString>
      <CharString index="71">
        rmoveto
        29 -27 3 -12 vhcurveto
        -61 -186 4 -1 hhcurveto
        -9 -13 -4 -18 -23 7 -12 2 hvcurveto
        7 38 228 0 9 hhcurveto
        18 7 5 9 hvcurveto
        endchar
      </CharString>
      <CharString index="72">
        3 6 -115 -77 -68 hhcurveto
        -2 -1 0 1 hvcurveto
        10 111 75 72 vvcurveto
        162 -312 24 -20 155 vhcurveto
        99 20 138 71 91 hhcurveto
        return
      </CharString>
      <CharString index="73">
        83 -40 83 -83 111 -111 180 -170 -21 205 94 -52 52 return
      </CharString>
      <CharString index="74">
        29 15 29 23 10 -9 176 -1 28 return
      </CharString>
      <CharString index="75">
        -19 callsubr
        93 51 -32 51 return
      </CharString>
      <CharString index="76">
        vvcurveto
        42 -34 21 -36 19 vhcurveto
        -20 12 -21 15 -7 13 rrcurveto
        33 2 36 15 21 hhcurveto
        6 6 -2 -2 2 hvcurveto
        -5 -8 -1 -7 -5 vvcurveto
        return
      </CharString>
      <CharString index="77">
        -21 223 -20 hstemhm
        44 114 return
      </CharString>
      <CharString index="78">
        180 170 261 134 return
      </CharString>
      <CharString index="79">
        hhcurveto
        -17 -26 -4 -18 return
      </CharString>
      <CharString index="80">
        -34 callsubr
        -11 callgsubr
        return
      </CharString>
      <CharString index="81">
        rmoveto
        -11 -7 -13 0 hvcurveto
        return
      </CharString>
      <CharString index="82">
        28 hhcurveto
        188 287 -323 -149 -34 -10 -32 -16 -29 hvcurveto
        45 -63 -63 64 -84 hhcurveto
        -22 -20 -4 -6 -20 hvcurveto
        return
      </CharString>
      <CharString index="83">
        489 -44 135 -135 163 -144 -21 728 63 return
      </CharString>
      <CharString index="84">
        -73 callgsubr
        45 105 return
      </CharString>
      <CharString index="85">
        511 562 -11 callsubr
        -61 callsubr
        return
      </CharString>
      <CharString index="86">
        -22 -55 1 -9 vvcurveto
        -6 6 -5 8 87 19 30 24 vhcurveto
        return
      </CharString>
      <CharString index="87">
        1 rrcurveto
        10 1 6 25 8 vvcurveto
        return
      </CharString>
      <CharString index="88">
        53 hstem
        24 248 vstem
        return
      </CharString>
      <CharString index="89">
        -32 -25 16 24 -16 hvcurveto
        return
      </CharString>
      <CharString index="90">
        -19 -30 98 486 77 hstem
        -8 53 83 37 vstem
        45 372 rmoveto
        13 callsubr
        return
      </CharString>
      <CharString index="91">
        -47 callsubr
        endchar
      </CharString>
      <CharString index="92">
        62 107 84 28 7 -8 3 -8 -6 -5 -2 -2 -5 return
      </CharString>
      <CharString index="93">
        -39 -12 -32 -13 -13 -9 rrcurveto
        -69 callgsubr
        return
      </CharString>
      <CharString index="94">
        35 164 80 hintmask 10101101
        299 733 rmoveto
        30 -19 21 -32 -107 -140 -124 -163 return
      </CharString>
      <CharString index="95">
        6 -4 -3 1 -3 hhcurveto
        -4 -4 -3 -3 -4 hvcurveto
        -9 -5 -55 -43 -17 vvcurveto
        -58 42 -26 55 return
      </CharString>
      <CharString index="96">
        -3 3 -5 4 33 41 44 35 23 -17 17 -25 return
      </CharString>
      <CharString index="97">
        -23 13 -12 4 return
      </CharString>
      <CharString index="98">
        6 4 20 10 11 vvcurveto
        8 -2 -4 3 -6 hhcurveto
        -39 -117 -91 -80 -47 17 -49 55 return
      </CharString>
      <CharString index="99">
        353 -93 callsubr
        return
      </CharString>
      <CharString index="100">
        rmoveto
        50 -28 -117 -9 72 hvcurveto
        53 63 127 21 hhcurveto
        3 2 -3 -6 1 hvcurveto
        return
      </CharString>
      <CharString index="101">
        -48 5 30 -2 11 hhcurveto
        48 20 35 31 hvcurveto
        return
      </CharString>
      <CharString index="102">
        -14 30 -30 51 -8 vhcurveto
        -32 vlineto
        return
      </CharString>
      <CharString index="103">
        -42 -12 27 -54 hhcurveto
        return
      </CharString>
      <CharString index="104">
        4 callgsubr
        4 -3 6 6 8 4 8 7 vhcurveto
        return
      </CharString>
      <CharString index="105">
        -26 callsubr
        endchar
      </CharString>
      <CharString index="106">
        366 -61 100 -100 136 -16 111 457 157 -84 84 hstemhm
        1 return
      </CharString>
      <CharString index="107">
        rmoveto
        25 62 46 53 56 -59 4 -31 -143 -291 -172 -151 hvcurveto
        return
      </CharString>
      <CharString index="108">
        vhcurveto
        5 5 24 23 8 9 rrcurveto
        5 4 3 1 3 hhcurveto
        21 62 -40 -63 return
      </CharString>
      <CharString index="109">
        -14 -37 72 vhcurveto
        20 -14 -11 9 -11 hhcurveto
        return
      </CharString>
      <CharString index="110">
        6 -4 3 -5 vhcurveto
        -19 -14 -34 -75 hhcurveto
        return
      </CharString>
      <CharString index="111">
        -35 -28 vhcurveto
        -5 -5 -2 -4 -4 vvcurveto
        -5 return
      </CharString>
      <CharString index="112">
        14 callgsubr
        vhcurveto
        return
      </CharString>
      <CharString index="113">
        4 -24 4 -5 return
      </CharString>
      <CharString index="114">
        -26 19 -21 24 24 19 21 26 26 -19 21 -24 -24 -19 -21 -26 vhcurveto
        return
      </CharString>
      <CharString index="115">
        25 47 -10 -34 hvcurveto
        -15 -10 -6 -9 vvcurveto
        -7 7 -8 9 vhcurveto
        endchar
      </CharString>
      <CharString index="116">
        rmoveto
        -17 -21 -27 -13 -27 hhcurveto
        return
      </CharString>
      <CharString index="117">
        7 -2 5 -10 vhcurveto
        return
      </CharString>
      <CharString index="118">
        -18 callgsubr
        -53 callgsubr
        return
      </CharString>
      <CharString index="119">
        -39 29 46 -22 hhcurveto
        -34 -46 -66 -30 -6 0 -26 30 hvcurveto
        endchar
      </CharString>
      <CharString index="120">
        89 22 callgsubr
        68 -2 callsubr
        return
      </CharString>
      <CharString index="121">
        -34 1 -51 51 58 48 60 44 35 return
      </CharString>
      <CharString index="122">
        rmoveto
        -104 -27 80 55 99 116 110 84 99 40 -53 -65 return
      </CharString>
      <CharString index="123">
        418 -136 114 -2 114 610 90 hstemhm
        52 95 return
      </CharString>
      <CharString index="124">
        vvcurveto
        220 -284 rmoveto
        -8 -20 -23 -12 -23 hhcurveto
        -70 -39 return
      </CharString>
      <CharString index="125">
        0 -2 -2 vvcurveto
        -17 4 -26 18 23 12 13 4 vhcurveto
        -3 return
      </CharString>
      <CharString index="126">
        29 34 67 71 92 -46 50 0 return
      </CharString>
      <CharString index="127">
        -340 -21 302 100 return
      </CharString>
      <CharString index="128">
        -4 -2 -5 -4 vhcurveto
        return
      </CharString>
      <CharString index="129">
        260 50 hstem
        return
      </CharString>
      <CharString index="130">
        vlineto
        -5 1 1 -4 4 hhcurveto
        17 10 6 24 hvcurveto
        return
      </CharString>
      <CharString index="131">
        -6 7 -1 5 56 9 49 5 39 -48 2 -8 return
      </CharString>
      <CharString index="132">
        6 -7 1 -2 return
      </CharString>
      <CharString index="133">
        -229 104 391 116 391 104 hstemhm
        return
      </CharString>
      <CharString index="134">
        rmoveto
        27 -11 5 -19 vhcurveto
        -63 hlineto
        1 29 2 return
      </CharString>
      <CharString index="135">
        124 54 279 78 14 -2 14 -4 14 return
      </CharString>
      <CharString index="136">
        16 3 -11 -9 hvcurveto
        -14 -5 1 -9 vvcurveto
        return
      </CharString>
      <CharString index="137">
        407 156 hstem
        64 51 29 51 vstem
        return
      </CharString>
      <CharString index="138">
        172 -23 107 -107 229 -217 -21 return
      </CharString>
      <CharString index="139">
        -4 -4 -2 -5 return
      </CharString>
      <CharString index="140">
        -9 -4 -8 -10 -37 -25 45 13 -9 return
      </CharString>
      <CharString index="141">
        18 0 9 -6 -26 -11 -24 -24 vhcurveto
        return
      </CharString>
      <CharString index="142">
        0 100 96 77 182 76 11 49 return
      </CharString>
      <CharString index="143">
        169 -60 101 -81 119 7 100 return
      </CharString>
      <CharString index="144">
        118 hstem
        57 108 vstem
        57 return
      </CharString>
      <CharString index="145">
        -12 9 -5 8 23 40 25 32 return
      </CharString>
      <CharString index="146">
        126 hstem
        65 122 vstem
        64 return
      </CharString>
      <CharString index="147">
        31 -36 -36 -29 -31 return
      </CharString>
      <CharString index="148">
        -97 113 hstem
        return
      </CharString>
</ttFont>
